<svg width="1920" height="2429" viewBox="0 0 1920 2429" fill="none" xmlns="http://www.w3.org/2000/svg">
<mask id="mask0_34_294" style="mask-type:alpha" maskUnits="userSpaceOnUse" x="0" y="0" width="1920" height="2429">
<rect width="1920" height="2429" fill="white"/>
</mask>
<g mask="url(#mask0_34_294)">
<mask id="mask1_34_294" style="mask-type:luminance" maskUnits="userSpaceOnUse" x="-58" y="-380" width="2726" height="1563">
<path d="M2667.77 -379.174L65.2952 -228.481L-57.0009 1182.35L2545.48 1031.66L2667.77 -379.174Z" fill="white"/>
</mask>
<g mask="url(#mask1_34_294)">
<path d="M-142.106 1108.67C-116.056 1022.24 -5.15328 965.103 98.0669 949.3C201.287 933.497 304.138 946.843 407.804 940.841C685.416 924.59 960.65 754.065 1070.48 530.124C1105.61 458.429 1124.88 382.913 1159.39 310.903C1193.89 239.069 1247.98 167.679 1329.16 129.815C1445.89 75.1526 1583.65 104.024 1692.63 151.232C1801.61 198.44 1901.7 263.534 2025.34 280.94C2187.79 303.82 2364.62 237.958 2498.83 140.872C2633.05 43.7866 2732.87 -82.1899 2830.36 -206.101" stroke="#FF4DC4" stroke-miterlimit="10"/>
<path d="M-147.677 1100.75C-119.706 1014.55 -9.25245 957.62 94.2152 941.452C139.056 934.469 183.64 932.94 228.273 933.339C286.926 933.803 345.32 937.265 403.784 934.932C523.097 930.129 641.931 898.507 748.483 844.259C830.883 802.288 905.415 749.017 966.706 686.685C1010.47 642.39 1046.66 593.268 1073.45 540.656C1085.41 517.152 1095.7 493.043 1105.35 468.796C1124.94 419.583 1141.77 369.829 1165.77 321.939C1192.93 267.551 1231.64 214.247 1285.42 176.391C1302.2 164.54 1320.14 154.201 1339.65 145.702C1421.27 110.269 1511.65 115.563 1596.78 136.779C1633.53 145.881 1669.38 158.018 1702.55 171.188C1739.67 186.059 1775.82 202.215 1811.81 217.678C1882.55 247.974 1952.87 275.662 2030.81 282.554C2081.56 287.161 2132.27 282.119 2183.36 270.211C2286.68 245.804 2391.16 190.624 2480.13 122.654C2504.4 104.053 2527.89 84.4435 2550.78 64.3429C2651.99 -25.392 2738.94 -127.286 2824.34 -223.826" stroke="#F552C5" stroke-miterlimit="10"/>
<path d="M-153.031 1092.81C-123.154 1007.03 -13.1338 950.124 90.5813 933.591C135.438 926.431 180.239 924.89 225.073 925.452C283.696 926.269 341.811 930.449 400.4 929.162C519.298 926.664 637.361 898.947 744.815 846.752C827.945 806.319 903.362 755.277 966.623 695.113C1011.79 651.964 1049.01 603.485 1076.85 551.162C1089.23 527.81 1099.96 503.676 1109.83 479.416C1130.05 430.342 1147.54 380.373 1172.39 332.786C1200.6 278.688 1240.29 226.556 1295.64 190.362C1312.8 179.192 1330.91 169.37 1350.36 161.576C1432.17 128.939 1521.02 136.954 1605.93 158.183C1642.89 167.448 1679.01 178.868 1712.47 191.143C1750.13 204.755 1786.84 219.474 1822.81 232.657C1893.68 258.91 1962.26 281.785 2036.07 284.18C2083.83 285.801 2130.47 278.012 2177.67 263.697C2273.43 234.465 2373.31 174.987 2460.99 104.46C2485.12 84.9897 2508.44 64.864 2531.38 44.2344C2633.67 -48.0197 2726.41 -149.547 2817.45 -241.324" stroke="#EB57C7" stroke-miterlimit="10"/>
<path d="M-158.587 1084.71C-126.803 999.345 -17.4189 942.301 86.5283 925.579C131.385 918.419 176.418 916.689 221.237 917.427C279.844 918.42 337.899 923.306 396.179 923.09C514.677 922.721 632.156 899.249 740.526 848.931C824.169 810.047 900.89 761.386 965.92 703.225C1012.7 661.387 1050.94 613.55 1079.62 561.53C1092.42 538.329 1103.35 514.359 1113.87 490.061C1134.74 440.949 1153.1 390.93 1178.56 343.659C1207.61 289.862 1248.5 238.89 1305.23 204.196C1322.77 193.529 1340.83 184.412 1360.43 177.311C1442.21 147.484 1529.75 158.207 1614.66 179.436C1651.62 188.701 1687.99 199.755 1722.19 210.935C1760.38 223.463 1797.47 236.23 1833.59 247.65C1904.6 269.858 1971.87 287.897 2041.34 285.629C2086.34 284.252 2128.47 273.741 2171.76 257.196C2259.92 223.49 2355.23 159.54 2441.65 86.1032C2465.41 65.9524 2488.81 44.9449 2512 23.7737C2615.4 -71.176 2714.13 -172.173 2810.58 -259.175" stroke="#E15DC8" stroke-miterlimit="10"/>
<path d="M-164.157 1076.78C-130.453 991.66 -21.5171 934.818 82.6776 917.73C127.766 910.381 172.799 908.651 217.588 909.742C276.165 911.088 334.173 916.503 392.13 917.534C510.227 919.293 627.138 899.89 736.192 851.638C820.564 814.291 898.373 768.024 965.171 711.866C1013.57 671.338 1052.83 624.144 1082.35 572.427C1095.58 549.2 1106.92 525.381 1117.66 501.071C1139.17 452.098 1158.2 401.865 1184.71 354.883C1214.8 301.553 1256.47 251.412 1315 218.545C1332.69 208.571 1351.13 199.958 1370.46 193.575C1452.43 166.544 1538.44 179.988 1623.11 201.406C1660.05 210.848 1696.92 221.171 1731.42 231.456C1769.91 242.914 1807.79 254.057 1843.9 263.196C1915.06 281.185 1981.01 294.562 2046.11 287.809C2088.35 283.433 2125.97 270.2 2165.59 251.237C2246.18 212.705 2336.67 144.647 2422.25 68.451C2445.65 47.4435 2469.09 25.907 2492.56 4.19415C2597.03 -93.2747 2701.54 -193.729 2803.63 -276.145" stroke="#D762CA" stroke-miterlimit="10"/>
<path d="M-169.511 1068.85C-134.117 984.152 -25.3989 927.321 79.0433 909.868C124.147 902.344 169.397 900.601 214.17 901.869C272.732 903.391 330.664 909.687 388.327 911.612C506.009 915.677 622.367 900.166 732.321 853.968C817.424 818.158 896.118 774.12 964.886 720.13C1014.91 680.735 1054.97 634.373 1085.55 582.769C1099.2 559.694 1110.98 535.85 1121.93 511.527C1144.31 462.504 1163.99 412.233 1191.12 365.567C1222.04 312.539 1264.92 263.557 1325.03 232.177C1343.12 222.707 1361.5 214.799 1380.98 209.109C1462.92 184.888 1547.63 200.863 1632.29 222.457C1669.45 231.886 1706.57 241.844 1741.59 251.047C1780.61 261.421 1818.86 270.787 1855.13 277.987C1926.43 291.932 1991.07 300.472 2051.83 289.057C2091.53 281.67 2124.41 265.728 2160.36 244.345C2233.37 201.163 2319.28 128.633 2403.59 49.7035C2426.85 27.8268 2450.14 5.59738 2473.65 -16.6446C2579.22 -116.809 2689.51 -216.721 2797.45 -294.386" stroke="#CD67CB" stroke-miterlimit="10"/>
<path d="M-175.067 1060.75C-137.767 976.467 -29.467 919.486 75.192 902.02C120.296 894.495 165.778 892.563 210.536 894.008C269.284 895.87 326.953 902.708 384.525 905.691C501.806 911.885 617.58 900.619 728.234 856.31C814.066 822.037 893.848 780.393 964.385 728.406C1016.02 690.322 1057.1 644.603 1088.52 593.301C1102.37 570.39 1114.57 546.697 1126.18 522.337C1149.2 473.276 1169.53 422.967 1197.5 376.603C1229.26 323.878 1273.13 275.892 1335.03 246.338C1353.48 237.548 1372.03 230.157 1391.46 225.172C1473.58 203.747 1556.77 222.444 1641.43 244.037C1678.59 253.467 1716.18 262.871 1751.5 271.179C1791.04 280.47 1829.66 288.06 1866.33 293.131C1937.55 303.045 2001.53 306.709 2057.5 290.835C2094.67 280.26 2123.04 261.596 2155.07 238.159C2220.5 190.328 2301.82 113.501 2385.07 31.8253C2407.96 9.26831 2431.31 -13.6665 2455.08 -36.4501C2561.73 -139.134 2678.04 -238.691 2791.4 -311.758" stroke="#C36CCD" stroke-miterlimit="10"/>
<path d="M-180.421 1052.81C-141.215 968.946 -33.3489 911.99 71.3407 894.172C116.677 886.458 162.159 884.526 207.119 886.134C265.851 888.173 323.242 895.729 380.707 899.947C497.573 908.445 612.793 901.072 724.132 858.829C810.694 826.093 891.563 786.843 963.651 736.871C1016.9 700.098 1059 655.021 1091.26 604.022C1105.53 581.261 1118.16 557.544 1129.98 533.171C1153.65 484.249 1174.64 433.726 1203.45 387.664C1236.26 335.229 1280.89 288.427 1344.6 260.347C1363.23 252.074 1381.94 245.376 1401.53 240.908C1483.63 222.292 1565.5 243.696 1649.94 265.303C1687.3 274.896 1725.16 283.758 1760.78 290.995C1800.86 299.203 1840.06 305.005 1876.68 308.148C1948.03 314.018 2010.96 312.48 2062.1 292.498C2096.95 278.9 2120.38 257.54 2148.73 231.683C2206.59 179.026 2283.09 98.0919 2365.3 13.4931C2388.04 -9.93313 2411.24 -33.5608 2435.27 -56.886C2543.02 -162.265 2665.09 -261.104 2784.1 -329.585" stroke="#B972CE" stroke-miterlimit="10"/>
<path d="M-185.992 1044.89C-144.865 961.262 -37.4474 904.507 67.4896 886.323C112.841 878.433 158.54 876.489 203.484 878.273C262.186 880.664 319.532 888.749 376.688 894.038C493.153 904.666 607.805 901.361 720.044 861.171C807.336 829.972 889.293 793.116 963.149 745.147C1018.03 709.508 1060.92 665.262 1094.25 614.377C1108.94 591.768 1121.78 568.038 1134.04 543.64C1158.35 494.68 1180.21 444.107 1209.64 398.36C1243.29 346.227 1289.13 300.408 1354.19 274.18C1373.19 266.588 1392.07 260.406 1411.6 256.643C1493.89 240.824 1574.01 264.961 1658.67 286.555C1696.03 296.148 1734.15 304.469 1770.5 310.787C1811.1 317.911 1850.66 322.113 1887.48 322.964C1958.97 324.791 2021.05 318.038 2067.39 293.772C2099.93 276.797 2118.4 252.916 2143.05 224.993C2193.35 167.51 2265.24 82.4559 2346.39 -4.8892C2368.77 -28.9957 2392.02 -53.3288 2416.12 -77.3594C2524.94 -185.258 2652.81 -283.73 2777.45 -347.448" stroke="#AF77CF" stroke-miterlimit="10"/>
<path d="M-191.331 1036.77C-148.298 953.564 -41.2986 896.658 63.8706 878.285C109.222 870.395 154.936 868.274 200.082 870.222C258.769 872.79 316.038 881.757 372.885 888.116C488.935 901.049 602.802 901.825 715.957 863.513C803.979 833.851 887.022 799.388 962.647 753.423C1019.14 719.094 1063.05 675.491 1097.22 624.908C1112.33 602.451 1125.59 578.871 1138.28 554.448C1163.45 505.614 1185.76 454.84 1216.24 409.383C1250.94 357.541 1297.55 312.729 1364.4 288.328C1383.57 281.252 1402.59 275.94 1422.29 272.694C1504.56 259.683 1583.36 286.529 1668.02 308.123C1705.6 317.703 1743.97 325.659 1780.63 330.906C1821.77 336.771 1861.68 339.373 1898.67 338.284C1970.07 336.08 2031.56 323.746 2073.05 295.725C2103.29 275.374 2116.79 249.149 2137.76 218.807C2180.48 156.674 2247.79 67.1473 2327.66 -22.7552C2349.67 -47.7183 2372.99 -72.7569 2397.33 -97.1528C2507.24 -207.57 2640.9 -305.676 2771.17 -364.632" stroke="#A57CD1" stroke-miterlimit="10"/>
<path d="M-196.901 1028.85C-152.179 946.068 -45.3972 889.175 60.0194 870.437C105.386 862.37 151.317 860.237 196.433 862.538C255.089 865.458 312.312 874.954 369.067 882.372C484.717 897.433 598.015 902.278 712.072 866.02C800.823 837.894 885.171 805.813 962.347 761.863C1020.45 728.844 1065.39 685.884 1100.39 635.604C1115.92 613.297 1129.62 589.693 1142.52 565.258C1168.34 516.386 1191.52 465.562 1222.62 420.42C1258.14 369.056 1305.76 325.063 1374.41 302.313C1393.95 295.917 1413.14 291.121 1432.78 288.58C1515.24 278.367 1592.53 307.757 1676.95 329.539C1714.52 339.296 1753.38 346.521 1790.33 350.874C1831.78 355.668 1872.49 356.469 1909.45 353.276C1980.99 347.029 2041.68 328.95 2078.31 297.175C2106.08 273.107 2115.02 244.69 2132.08 212.117C2167.23 145.158 2229.94 51.5115 2308.55 -41.3012C2330.43 -67.1335 2353.57 -92.6885 2378.19 -117.802C2489.2 -230.915 2628.84 -328.315 2764.75 -382.684" stroke="#9B81D2" stroke-miterlimit="10"/>
<path d="M-202.472 1020.92C-155.829 938.384 -49.4957 881.691 55.9515 862.601C101.55 854.346 147.482 852.212 192.798 854.677C251.439 857.774 308.384 867.988 365.048 876.463C480.282 893.83 593.027 902.567 707.768 868.375C797.249 841.786 882.684 812.098 961.629 770.152C1021.34 738.444 1067.31 696.126 1103.16 645.972C1119.11 623.816 1133.02 600.2 1146.36 575.739C1172.83 526.83 1196.64 476.144 1228.6 431.128C1264.96 380.067 1313.57 337.07 1384 316.146C1403.72 310.267 1423.28 306.151 1442.64 304.328C1525.06 296.924 1601.04 329.022 1685.47 350.805C1723.25 360.549 1762.36 367.409 1799.84 370.678C1841.81 374.389 1882.88 373.59 1920.02 368.281C1991.48 358.002 2051.17 334.016 2083.35 298.813C2108.62 271.205 2112.78 240.608 2126.16 205.793C2153.74 134.008 2211.63 36.2532 2289.4 -59.3183C2310.9 -85.831 2334.12 -112.268 2358.77 -137.734C2470.86 -253.367 2616.3 -350.4 2757.83 -400.006" stroke="#9187D4" stroke-miterlimit="10"/>
<path d="M-207.811 1012.81C-159.262 930.686 -53.347 873.843 52.3324 854.563C97.9312 846.308 144.094 843.986 189.396 846.627C248.223 850.064 304.89 860.995 361.245 870.541C476.079 890.037 588.256 902.843 703.897 870.704C794.109 845.653 880.631 818.358 961.344 778.415C1022.67 748.017 1069.44 706.355 1106.35 656.49C1122.49 634.499 1137.05 611.021 1150.6 586.548C1177.7 537.777 1202.18 486.877 1234.96 442.341C1272.38 391.569 1321.78 349.403 1393.99 330.307C1414.1 324.932 1433.6 321.521 1453.12 320.391C1535.73 315.783 1610.18 350.602 1694.59 372.561C1732.37 382.305 1771.74 388.623 1809.73 390.986C1852.23 393.614 1893.67 391.039 1930.99 383.613C2002.56 369.467 2060.84 339.422 2088.59 300.615C2111.16 269.304 2110.76 236.514 2120.23 199.468C2140.03 122.869 2193.55 20.8061 2270.04 -77.4992C2291.19 -104.869 2314.24 -131.822 2339.38 -158.019C2452.57 -276.347 2603.78 -372.837 2750.97 -417.857" stroke="#878CD5" stroke-miterlimit="10"/>
<path d="M-213.381 1004.88C-162.926 923.178 -57.4453 866.359 48.4662 846.891C94.0803 838.459 140.46 836.125 185.747 838.942C244.559 842.555 301.164 854.192 357.211 864.809C471.644 886.434 583.237 903.485 699.578 873.236C790.303 849.734 878.129 824.82 960.61 786.88C1023.77 757.78 1071.34 716.773 1109.09 667.211C1125.65 645.371 1140.64 621.868 1154.63 597.369C1182.6 548.548 1207.73 497.611 1241.34 453.377C1279.59 402.908 1329.99 361.737 1403.77 344.48C1424.03 339.798 1443.92 336.892 1463.37 336.467C1545.96 334.668 1619.1 372.195 1703.29 394.166C1741.05 404.087 1780.92 409.675 1819.2 411.143C1862.23 412.687 1904.02 408.513 1941.53 398.971C2013.02 380.794 2069.86 344.865 2093.6 302.607C2113.25 267.603 2108.5 232.785 2114.29 193.319C2126.51 112.071 2175.44 5.71166 2250.87 -95.34C2271.88 -123.579 2294.77 -151.225 2319.95 -177.774C2434.22 -298.621 2591.21 -394.569 2744.04 -435.003" stroke="#7D91D7" stroke-miterlimit="10"/>
<path d="M-218.735 996.948C-166.359 915.48 -61.3271 858.864 44.8319 839.03C90.6781 830.409 137.058 828.075 182.329 831.068C241.111 835.034 297.67 847.201 353.61 859.052C467.628 882.982 578.668 903.925 695.909 875.729C787.364 853.764 876.479 831.408 960.527 795.308C1025.3 767.518 1073.9 727.154 1112.49 677.718C1129.49 655.852 1144.68 632.513 1159.1 607.989C1187.71 559.307 1213.5 508.156 1247.95 464.224C1287.26 414.045 1338.44 373.706 1414.01 358.276C1434.66 354.097 1454.48 351.897 1474.1 352.165C1556.89 352.986 1628.48 393.41 1712.67 415.381C1750.65 425.289 1790.77 430.512 1829.58 430.897C1873.12 431.358 1915.5 425.395 1952.98 413.749C2024.6 391.529 2079.79 349.906 2099.52 304.019C2116.03 265.337 2107.16 228.3 2109.25 186.768C2113.69 100.707 2158.22 -9.78554 2232.4 -113.747C2253.03 -142.666 2275.99 -171.018 2301.44 -198.286C2416.81 -321.828 2579.8 -417.246 2738.25 -452.917" stroke="#7396D8" stroke-miterlimit="10"/>
<path d="M-224.291 988.847C-170.225 907.808 -65.395 851.027 40.7793 831.017C86.6255 822.397 133.238 819.873 178.695 823.207C237.461 827.349 293.945 840.398 349.591 853.143C463.209 879.201 573.463 904.226 691.606 878.084C783.79 857.656 873.992 837.693 959.809 803.596C1026.19 777.117 1075.6 737.408 1115.25 688.261C1132.66 666.547 1148.27 643.359 1162.91 618.823C1192.17 570.103 1218.83 518.902 1253.9 475.285C1294.04 425.408 1346 386.077 1423.57 372.462C1444.61 368.787 1464.59 367.279 1484.14 368.253C1566.9 371.883 1637.19 414.839 1721.15 436.999C1759.12 447.084 1799.73 451.575 1838.83 451.066C1882.71 450.28 1925.64 442.881 1963.3 429.119C2035.04 403.032 2088.34 355.727 2104.32 305.846C2117.69 263.661 2104.69 224.407 2103.11 180.456C2099.98 89.5684 2139.69 -25.0314 2213.03 -131.752C2233.31 -161.528 2256.32 -190.584 2282.02 -218.218C2398.47 -344.279 2567.25 -439.33 2731.34 -470.239" stroke="#699CD9" stroke-miterlimit="10"/>
<path d="M-229.645 980.91C-173.673 900.287 -69.2767 843.531 37.145 823.156C83.0065 814.359 129.836 811.823 175.278 815.333C234.013 819.828 290.234 833.418 345.789 847.222C458.991 875.585 568.677 904.679 687.518 880.426C780.433 861.535 871.939 843.953 959.307 811.872C1027.29 786.88 1077.73 747.637 1118.22 698.793C1136.05 677.23 1151.88 654.03 1167.17 629.456C1197.06 580.875 1224.39 529.459 1260.29 486.145C1301.26 436.747 1354.24 398.059 1433.58 386.446C1454.78 383.288 1474.92 382.473 1494.63 384.139C1577.58 390.566 1646.34 436.242 1730.3 458.403C1768.49 468.475 1809.35 472.601 1848.97 471.009C1893.37 469.14 1936.67 459.964 1974.52 444.086C2046.18 413.968 2097.82 360.969 2110.01 307.447C2120.23 261.76 2102.89 220.3 2097.83 174.093C2086.69 78.5814 2122.26 -40.5162 2194.31 -149.794C2214.43 -180.263 2237.29 -210.012 2263.05 -238.351C2380.6 -367.108 2555.16 -461.617 2724.87 -487.762" stroke="#5FA1DB" stroke-miterlimit="10"/>
<path d="M-235.216 972.986C-177.338 892.779 -73.3755 836.048 33.2937 815.308C79.3874 806.322 126.217 803.786 171.643 807.472C230.565 812.308 286.523 826.439 341.971 841.477C454.772 871.969 563.89 905.132 683.632 882.932C777.277 865.578 869.855 850.567 959.007 820.312C1028.82 796.617 1080.07 758.03 1121.39 709.489C1139.64 688.077 1155.9 664.851 1171.41 640.265C1201.95 591.646 1229.93 540.193 1266.67 497.181C1308.69 448.073 1362.69 410.204 1443.37 400.443C1464.96 397.789 1485.26 397.667 1504.92 399.862C1587.84 409.098 1655.29 457.482 1739.25 479.643C1777.44 489.715 1818.56 493.3 1858.69 490.8C1903.62 487.848 1947.49 477.061 1985.3 459.079C2057.1 424.916 2106.82 366.589 2115.06 308.909C2122.11 259.896 2100.68 215.865 2091.94 167.416C2073.21 67.2544 2104.19 -56.1396 2174.99 -168.328C2194.75 -199.653 2217.67 -230.108 2243.68 -258.812C2362.3 -390.088 2542.65 -484.054 2718.02 -505.79" stroke="#55A6DC" stroke-miterlimit="10"/>
<path d="M-240.771 964.885C-180.972 884.918 -77.6602 828.225 29.4579 807.283C75.5516 798.297 122.396 795.584 168.024 799.435C226.931 804.446 282.812 819.46 337.967 835.392C450.353 868.19 558.917 905.244 679.344 885.111C773.718 869.294 867.368 856.852 958.304 828.425C1029.73 806.04 1081.78 768.107 1124.17 719.68C1142.85 698.42 1159.52 675.345 1175.25 650.746C1206.66 602.077 1235.29 550.586 1272.87 507.877C1315.72 459.071 1370.72 422.021 1453.18 414.264C1474.93 412.302 1495.38 412.873 1515.21 415.585C1598.32 427.617 1664.02 478.735 1747.98 500.896C1786.37 511.131 1827.75 514.175 1868.2 510.604C1913.65 506.569 1957.89 494.005 1995.89 473.908C2067.8 435.878 2115.64 371.869 2120.11 310.371C2124 258.032 2098.68 211.595 2086.04 160.739C2059.75 55.751 2085.91 -71.7506 2155.86 -186.698C2175.27 -218.879 2198.24 -249.864 2224.52 -279.285C2344.24 -413.257 2530.58 -506.693 2711.37 -523.653" stroke="#4BABDE" stroke-miterlimit="10"/>
<path d="M-246.125 956.948C-184.637 877.409 -81.5415 820.729 25.6072 799.434C71.7162 790.272 118.778 787.547 164.608 791.561C223.483 796.925 279.319 812.468 334.15 829.647C446.135 864.574 554.116 905.873 675.459 887.617C770.563 873.337 865.517 863.276 957.788 836.877C1030.81 815.979 1083.9 778.513 1127.35 730.375C1146.22 709.279 1163.33 686.179 1179.71 661.543C1211.75 613.012 1241.05 561.307 1279.47 518.9C1323.38 470.385 1379.17 434.166 1463.4 428.236C1485.54 426.778 1506.15 428.042 1525.7 431.472C1608.79 446.313 1673.17 500.139 1757.12 522.476C1795.5 532.712 1837.37 535.201 1878.32 530.724C1924.3 525.605 1969.11 511.429 2007.07 489.227C2079.11 447.33 2125.06 377.816 2125.78 312.148C2126.29 256.495 2097.08 207.652 2080.75 154.553C2046.9 44.7389 2068.45 -86.8826 2137.14 -204.74C2156.39 -237.614 2179.22 -269.468 2205.54 -299.242C2326.34 -435.734 2518.47 -528.803 2705.11 -541.013" stroke="#41B1DF" stroke-miterlimit="10"/>
<path d="M-251.696 949.023C-188.302 869.9 -85.6404 813.245 21.7405 791.762C68.0816 782.411 115.143 779.686 160.958 783.876C219.818 789.417 275.593 805.664 330.115 823.915C441.685 861.146 549.112 906.338 671.139 890.148C766.973 877.405 862.984 870.091 957.054 845.342C1031.67 825.931 1085.8 788.931 1130.09 741.096C1149.38 720.151 1166.92 697.026 1183.52 672.376C1216.21 623.809 1246.37 572.053 1285.41 529.961C1330.16 481.748 1386.97 446.172 1472.96 442.421C1495.27 441.481 1516.03 443.437 1535.74 447.56C1619.02 465.198 1681.89 521.568 1765.82 544.081C1804.42 554.304 1846.53 556.428 1887.79 550.88C1934.08 544.691 1979.48 528.726 2017.63 504.408C2089.8 458.468 2133.83 383.625 2130.81 313.963C2128.15 254.984 2094.84 203.57 2074.83 148.228C2033.17 33.7771 2050.37 -102.33 2117.99 -222.757C2136.88 -256.488 2159.76 -288.871 2186.35 -319.363C2308.25 -458.55 2506.15 -550.9 2698.42 -558.524" stroke="#37B6E1" stroke-miterlimit="10"/>
<path d="M-257.035 940.91C-163.533 828.108 5.65452 760.758 157.555 775.826C336.632 793.532 483.961 913.62 667.284 892.301C763.848 881.095 860.946 876.174 956.784 853.429C1066.5 827.424 1132 763.796 1187.79 682.833C1259.38 578.845 1318.7 459.601 1482.99 456.229C1601.67 453.744 1671.23 537.451 1774.77 565.321C1856.59 587.255 1956.34 569.196 2028.64 519.212C2100.95 469.228 2143.05 389.232 2136.29 315.4C2130.47 253.095 2093.06 199.286 2069.37 141.525C2006.41 -10.9973 2044.43 -198.143 2167.41 -339.849C2290.39 -481.555 2494.3 -573.551 2691.99 -576.4" stroke="#2DBBE2" stroke-miterlimit="10"/>
<path d="M-248.838 955.876C-154.768 851.465 12.9834 788.233 163.968 801.424C239.576 807.925 309.814 831.583 379.275 854.232C450.395 877.662 520.29 900.287 595.074 903.853C619.15 904.915 643.812 904.189 668.936 900.628C763.53 887.255 858.689 879.815 954.154 856.389C1062.4 829.942 1128.77 768.721 1185.91 692.066C1199.09 674.458 1211.86 656.522 1224.84 638.75C1263.03 586.53 1303.16 536.83 1362.26 507.263C1395.42 490.603 1434.31 480.104 1481.9 478.752C1599.17 475.121 1669.16 551.433 1769.65 574.567C1782.98 577.655 1796.83 579.661 1810.77 580.608C1880.49 585.344 1956.32 564.46 2014.13 522.333C2083.46 471.82 2123.99 392.617 2118.03 319.441C2113.05 257.438 2078.48 203.113 2056.96 145.227C2019.87 45.4268 2024.57 -68.5495 2066.74 -174.167C2089.32 -230.572 2122.7 -284.62 2165.75 -333.085C2244.62 -421.526 2355.22 -490.046 2476.27 -529.869C2545.79 -552.669 2618.79 -565.845 2691.01 -567.57" stroke="#33B4E3" stroke-miterlimit="10"/>
<path d="M-240.424 970.831C-146.003 874.821 20.5286 815.696 170.814 826.998C246.282 832.629 316.315 853.666 385.153 873.544C455.681 893.851 524.565 913.199 598.277 914.195C621.98 914.578 646.068 913.007 670.804 908.943C763.645 893.39 856.632 883.619 951.508 859.525C1058.05 832.827 1125.54 773.646 1183.81 701.312C1197.35 684.561 1210.45 667.834 1223.77 651.095C1262.75 602.163 1302.99 556.141 1361.92 528.514C1395.2 513.076 1433.84 502.943 1480.61 501.112C1596.45 496.51 1666.88 565.252 1764.33 583.648C1777.28 586.057 1790.55 587.394 1804.1 587.838C1871.46 589.903 1944.17 567.62 1999.43 525.115C2065.79 474.071 2104.72 395.839 2099.79 323.305C2095.86 261.592 2063.69 206.953 2044.79 148.739C2011.6 48.7134 2019.07 -64.897 2062.87 -169.381C2086.51 -225.496 2120.7 -278.888 2164.55 -326.698C2244.38 -413.792 2355.07 -480.913 2476.34 -520.748C2545.86 -543.549 2618.44 -556.876 2690.48 -558.941" stroke="#38ADE5" stroke-miterlimit="10"/>
<path d="M-232.01 985.785C-137.022 898.165 28.0895 842.982 177.459 852.407C252.585 857.005 322.599 875.762 391.062 892.503C461.199 909.85 529.103 925.57 601.511 924.185C624.857 923.711 648.572 921.46 672.704 916.904C763.791 899.172 854.637 886.717 949.125 862.12C1054.21 834.803 1122.55 778.205 1182.18 710.18C1195.84 694.474 1209.5 678.768 1222.93 663.251C1262.69 617.783 1303.08 575.087 1361.82 549.576C1395.01 535.196 1433.62 525.416 1479.55 523.282C1593.98 517.534 1664.6 579.07 1759.46 592.528C1772.04 594.256 1784.92 595.09 1798.09 595.029C1863.09 594.424 1932.68 570.741 1985.6 527.846C2049.18 476.437 2086.32 399.01 2082.41 327.118C2079.33 265.531 2050 210.553 2033.27 152.214C2004.19 51.9493 2014.01 -61.2702 2059.65 -164.632C2084.34 -220.458 2119.34 -273.195 2163.76 -320.161C2244.56 -405.906 2355.35 -471.63 2476.62 -511.464C2545.9 -534.076 2618.5 -547.579 2690.38 -550.338" stroke="#3EA6E6" stroke-miterlimit="10"/>
<path d="M-223.596 1000.74C-128.025 921.332 35.6348 870.445 184.305 877.98C259.305 881.533 329.1 897.846 397.157 911.803C466.919 926.013 533.61 938.294 604.931 934.515C627.904 933.361 651.03 930.442 674.789 925.206C764.108 905.47 852.798 890.509 946.913 865.231C1050.31 837.486 1119.74 783.281 1180.52 719.401C1194.52 704.728 1208.52 690.055 1222.3 675.571C1262.85 633.391 1303.36 594.197 1361.93 570.802C1395.23 557.468 1433.55 548.582 1478.68 545.793C1591.7 538.898 1662.53 593.052 1754.56 601.761C1766.75 602.985 1779.26 603.138 1791.83 602.41C1854.48 599.134 1920.74 574.065 1971.32 530.778C2031.92 478.84 2067.25 402.395 2064.6 330.957C2062.36 269.673 2035.88 214.179 2021.53 155.701C1996.37 55.0344 2008.95 -57.643 2056.45 -160.06C2082.2 -215.595 2118.2 -267.513 2163.01 -313.975C2244.77 -398.373 2355.67 -462.874 2477.12 -502.369C2546.41 -524.981 2618.59 -538.635 2690.28 -541.734" stroke="#43A0E8" stroke-miterlimit="10"/>
<path d="M-215.383 1015.53C-119.245 944.512 42.979 897.744 190.748 903.225C265.391 905.921 335.4 919.765 402.865 930.598C472.019 941.86 537.715 950.69 607.963 944.341C630.579 942.33 653.333 938.731 676.487 933.004C764.053 911.088 850.586 893.619 944.112 867.674C1046.03 839.488 1116.35 787.513 1178.47 728.117C1192.83 714.301 1207.16 700.837 1221.26 687.563C1262.39 648.683 1303.45 613.142 1361.84 591.688C1395.28 579.399 1433.14 570.714 1477.63 567.787C1589.2 560.274 1660.5 606.505 1749.49 610.477C1761.31 611.02 1773.44 610.494 1785.4 609.45C1845.45 603.692 1908.83 577.035 1956.85 533.37C2014.7 480.889 2048.23 405.251 2046.58 334.632C2045.18 273.65 2021.54 217.816 2009.37 159.037C1988.34 58.1314 2003.47 -54.1675 2052.6 -155.451C2079.4 -210.696 2116.21 -261.959 2161.59 -307.577C2244.32 -390.626 2355.31 -453.729 2476.98 -493.236C2546.03 -515.659 2618.01 -529.478 2689.55 -533.269" stroke="#4999E9" stroke-miterlimit="10"/>
<path d="M-206.969 1030.48C-110.264 967.856 50.5398 925.03 197.377 928.811C271.679 930.474 341.685 941.862 408.743 949.911C477.522 958.036 542.006 963.427 611.167 954.684C633.426 951.816 655.574 947.726 678.356 941.318C764.169 917.223 848.546 897.247 941.684 870.798C1041.91 842.183 1113.32 792.602 1176.59 737.35C1191.29 724.567 1205.96 712.137 1220.19 699.908C1262.11 664.316 1303.3 632.277 1361.51 612.939C1394.85 601.708 1432.67 593.552 1476.34 590.146C1586.71 581.474 1658.22 620.324 1744.17 619.558C1755.62 619.422 1767.14 618.404 1778.95 616.667C1836.64 608.238 1896.91 580.183 1942.59 536.127C1997.46 483.116 2029.4 408.447 2028.77 338.471C2028.21 277.792 2007.2 221.454 1997.63 162.524C1980.5 61.3928 1998.62 -50.5529 2049.16 -150.689C2077.02 -205.645 2114.63 -256.253 2160.61 -301.203C2244.08 -382.891 2355.16 -444.596 2477.05 -484.116C2546.11 -506.539 2617.88 -520.521 2689.25 -524.829" stroke="#4F92EA" stroke-miterlimit="10"/>
<path d="M-198.555 1045.44C-101.499 991.212 58.3024 952.48 204.224 954.384C278.4 955.002 348.171 964.122 414.854 969.034C483.242 974.199 546.745 975.961 614.603 964.838C636.489 961.289 658.28 956.343 680.457 949.444C764.502 923.345 846.954 900.673 939.286 873.569C1038.03 844.689 1110.34 797.161 1174.94 746.395C1190 734.468 1205 723.247 1219.55 712.227C1262.25 680.1 1303.79 651.551 1361.61 634.165C1395.06 624.156 1432.64 616.365 1475.49 612.481C1584.43 602.838 1656.15 634.306 1739.29 628.615C1750.36 627.798 1761.5 626.276 1772.7 624.048C1828.04 612.948 1884.97 583.506 1928.31 539.059C1980.21 485.519 2010.55 411.82 2010.96 342.31C2011.25 281.757 1993.29 225.067 1985.69 165.848C1972.9 64.465 1993.36 -47.0898 2045.75 -146.105C2074.65 -200.77 2113.06 -250.547 2159.63 -294.829C2244.06 -375.17 2355.23 -435.476 2477.33 -474.832C2546.15 -497.066 2617.72 -511.212 2688.92 -516.036" stroke="#548BEC" stroke-miterlimit="10"/>
<path d="M-190.141 1060.39C-92.5173 1014.56 65.8327 980.119 210.868 979.793C284.672 979.731 354.471 986.042 420.748 988.17C488.543 990.21 551.051 988.521 617.821 975.004C639.35 970.599 660.552 964.985 682.341 957.581C764.415 929.316 844.913 904.301 936.872 876.516C1034.14 847.195 1107.54 802.061 1173.29 755.439C1188.7 744.545 1204.04 734.357 1218.93 724.37C1262.21 695.544 1304.07 670.66 1361.73 655.214C1395.31 646.251 1432.62 639.002 1474.63 634.815C1582.15 624.202 1654.3 648.099 1734.4 637.671C1745.09 636.35 1755.85 634.147 1766.45 631.428C1819.43 617.657 1873.24 586.817 1914.03 541.992C1963.17 487.909 1991.71 415.016 1992.92 346.338C1994.04 286.087 1978.92 229.058 1973.72 169.523C1964.83 67.9149 1988.07 -43.274 2042.08 -141.155C2072.04 -195.531 2111.47 -244.664 2158.39 -288.09C2243.79 -367.083 2355.06 -425.991 2477.15 -465.347C2545.76 -487.568 2617.33 -501.714 2688.15 -507.219" stroke="#5A84ED" stroke-miterlimit="10"/>
<path d="M-181.944 1075.36C-83.7528 1037.91 73.1612 1007.59 217.497 1005.38C291.176 1004.27 360.74 1008.31 426.641 1007.31C494.046 1006.39 555.342 1001.26 621.04 985.17C641.979 980.098 663.025 973.79 684.224 965.72C764.546 935.275 842.888 907.752 934.242 879.476C1029.82 849.726 1104.31 806.986 1171.2 764.685C1186.94 754.824 1202.62 745.669 1217.86 736.715C1261.93 711.177 1304.14 689.782 1361.4 676.465C1395.1 668.548 1431.95 661.676 1473.34 657.174C1579.44 645.415 1652.03 661.918 1729.08 646.752C1739.4 644.751 1749.79 641.868 1759.78 638.658C1810.4 622.216 1861.1 589.977 1899.33 544.773C1945.48 490.337 1972.44 418.237 1974.69 350.025C1976.86 290.064 1964.16 232.544 1961.56 172.86C1956.8 71.0125 1982.59 -39.7981 2038.45 -136.558C2069.46 -190.643 2109.7 -239.122 2157.21 -281.88C2243.56 -359.524 2354.93 -417.034 2477.24 -456.403C2545.83 -478.448 2617 -492.921 2687.85 -498.779" stroke="#607DEE" stroke-miterlimit="10"/>
<path d="M-173.53 1090.31C-74.756 1061.08 80.7067 1035.06 224.127 1030.96C297.463 1028.82 367.024 1030.41 432.52 1026.62C499.534 1022.74 559.632 1013.99 624.243 995.513C644.825 989.583 665.282 982.608 686.093 974.034C764.662 941.409 840.832 911.555 931.829 882.423C1025.92 852.408 1101.52 811.709 1169.54 773.905C1185.64 764.901 1201.65 756.955 1216.99 749.224C1261.64 726.986 1304.4 709.244 1361.27 697.879C1395.08 691.184 1431.68 684.678 1472.25 679.697C1576.93 666.968 1649.97 675.723 1723.97 655.997C1733.91 653.316 1743.69 649.942 1753.51 646.215C1801.76 627.278 1849.15 593.476 1885.25 547.869C1928.64 492.891 1953.8 421.773 1957.06 354.204C1960.08 294.546 1950.2 236.686 1949.79 176.699C1948.93 74.6261 1977.71 -35.8312 2034.98 -131.444C2067.25 -185.076 2108.09 -233.063 2156.39 -274.99C2243.71 -351.286 2355.17 -407.398 2477.7 -446.779C2546.07 -468.811 2617.02 -483.272 2687.72 -489.823" stroke="#6576F0" stroke-miterlimit="10"/>
<path d="M-165.1 1105.09C-65.759 1084.25 88.283 1062.17 231.004 1056.18C304.2 1053.17 373.541 1052.32 438.444 1045.4C504.866 1038.4 563.969 1026.2 627.493 1005.33C647.717 998.541 667.801 990.885 688.008 981.819C764.823 947.015 838.837 914.654 929.446 885.017C1022.07 854.562 1098.76 816.256 1167.7 782.61C1184.15 774.639 1200.3 767.562 1216.18 761.027C1261.63 742.077 1304.5 728.014 1361.2 718.589C1395.14 712.939 1431.47 706.975 1471.42 701.679C1574.69 687.803 1647.94 689.177 1719.11 664.701C1728.68 661.34 1738.08 657.461 1747.31 653.067C1793.2 631.459 1837.47 596.258 1871.02 550.273C1911.43 494.765 1935.01 424.441 1939.28 357.691C1943.15 298.158 1936.11 239.959 1938.08 179.834C1941.36 77.3461 1972.68 -32.5566 2031.58 -127.036C2064.9 -180.378 2106.75 -227.546 2155.44 -268.968C2243.72 -343.917 2355.28 -398.63 2477.79 -437.835C2546.14 -459.691 2616.91 -474.492 2687.2 -481.37" stroke="#6B70F1" stroke-miterlimit="10"/>
<path d="M-156.686 1120.04C-56.9944 1107.6 95.8286 1089.63 237.633 1081.77C310.487 1077.73 379.81 1074.59 444.338 1064.54C510.369 1054.57 568.476 1038.92 630.711 1015.49C650.563 1008.03 670.275 999.691 689.892 989.957C764.954 952.973 836.797 918.282 926.831 887.801C1017.75 857.093 1095.54 821.004 1165.84 791.666C1182.62 784.728 1199.12 778.685 1215.33 773.359C1261.35 757.71 1304.77 747.3 1361.07 740.004C1394.9 735.588 1431.21 729.977 1470.33 724.202C1572.17 709.356 1645.86 703.159 1713.99 673.946C1723.19 669.904 1732.2 665.522 1740.83 660.636C1784.36 636.357 1825.29 599.77 1856.5 553.394C1893.94 497.357 1915.92 428.002 1921.24 361.718C1925.94 302.488 1921.74 243.949 1925.9 183.523C1933.07 80.8086 1967.38 -28.7408 2027.91 -122.086C2062.29 -175.138 2104.95 -221.651 2154.21 -262.229C2243.47 -336.006 2355.1 -389.145 2477.83 -428.362C2545.97 -450.205 2616.52 -464.994 2686.87 -472.577" stroke="#7069F3" stroke-miterlimit="10"/>
<path d="M-148.49 1135.01C-48.2301 1130.96 103.172 1116.93 244.045 1107.37C316.557 1102.29 385.877 1096.7 449.999 1083.86C515.654 1070.76 572.55 1051.67 633.697 1025.85C653.192 1017.53 672.315 1008.52 691.327 998.297C764.636 959.133 834.322 921.935 923.969 890.95C1013.4 859.977 1092.29 826.106 1163.53 800.925C1180.67 794.844 1197.49 790.01 1213.83 785.729C1260.43 773.38 1304.39 766.624 1360.3 761.28C1394.26 757.91 1430.32 752.664 1468.61 746.586C1569.04 730.594 1643.15 717.003 1708.26 682.877C1717.07 678.331 1725.72 673.092 1733.96 667.702C1775.13 640.752 1812.95 602.766 1841.82 555.999C1876.5 499.42 1896.67 431.047 1903.01 365.406C1908.77 306.466 1906.98 247.436 1913.74 186.859C1925.04 83.9061 1961.9 -25.2649 2024.06 -117.476C2059.49 -170.238 2102.95 -216.096 2152.81 -256.006C2243.03 -328.435 2354.76 -380.176 2477.7 -419.406C2545.83 -441.073 2615.97 -456.189 2686.16 -464.289" stroke="#7662F4" stroke-miterlimit="10"/>
<path d="M-140.075 1149.96C-39.2484 1154.3 110.935 1144.38 250.907 1132.76C323.278 1126.82 392.379 1118.78 456.125 1102.81C521.173 1086.76 577.073 1064.22 637.149 1035.83C656.271 1026.82 675.036 1016.96 693.443 1006.25C764.782 964.915 832.514 925.373 921.587 893.544C1009.54 862.131 1089.52 830.653 1161.89 809.793C1179.38 804.745 1196.54 800.943 1213.22 797.696C1260.61 788.635 1304.79 784.322 1360.44 782.153C1394.44 780.711 1430.1 775.137 1467.78 768.568C1566.79 751.605 1641.14 730.279 1703.4 691.58C1711.84 686.354 1719.89 680.624 1727.74 674.73C1766.56 645.109 1801.26 605.724 1827.57 558.579C1859.28 501.47 1877.87 433.891 1885.21 369.068C1891.81 310.431 1892.87 250.885 1901.8 190.182C1917 87.0033 1956.86 -21.8145 2020.44 -113.055C2057.14 -165.54 2101.18 -210.554 2151.62 -249.796C2242.8 -320.877 2354.63 -371.22 2477.56 -410.273C2545.46 -431.927 2615.61 -447.044 2685.41 -455.647" stroke="#7C5BF5" stroke-miterlimit="10"/>
<path d="M-131.662 1164.92C-30.2672 1177.65 118.511 1171.49 257.536 1158.35C329.581 1151.2 398.88 1140.87 462.003 1122.12C526.676 1102.94 581.363 1076.96 640.352 1046.17C659.117 1036.31 677.277 1025.96 695.312 1014.56C764.913 970.874 830.674 929.165 919.158 896.668C1005.41 865.002 1086.69 835.905 1160.23 819.014C1178.06 814.998 1195.56 812.23 1212.57 810.193C1260.54 804.432 1305.14 805.183 1360.74 803.543C1394.92 802.617 1430.28 797.937 1467.11 791.242C1564.7 773.133 1639.48 744.413 1698.7 700.977C1706.77 695.07 1714.43 688.836 1721.67 682.451C1758.12 650.335 1789.5 609.388 1813.48 561.852C1842.43 504.201 1859.2 437.604 1867.37 373.26C1875.03 314.736 1878.48 255.052 1890.04 193.846C1908.93 90.4537 1951.78 -18.0109 2017.21 -108.13C2054.96 -160.325 2100.02 -204.696 2150.82 -243.082C2242.97 -312.815 2354.68 -361.923 2478.03 -400.825C2545.92 -422.303 2615.67 -437.747 2685.51 -446.88" stroke="#8154F7" stroke-miterlimit="10"/>
<path d="M-123.464 1179.89C-21.5026 1201 125.839 1198.96 264.18 1183.76C336.085 1175.74 405.164 1162.96 467.912 1141.08C532.194 1118.93 585.886 1089.5 643.601 1055.98C661.993 1045.44 679.796 1034.23 697.226 1022.35C765.074 976.479 828.664 932.439 916.79 899.086C1001.56 867.155 1083.94 840.276 1158.4 827.718C1176.57 824.735 1194.4 823.177 1211.76 821.996C1260.39 818.654 1305.46 823.94 1360.67 824.252C1394.97 824.372 1430.07 820.234 1466.08 813.06C1562.26 793.804 1637.27 757.526 1693.65 709.516C1701.34 702.93 1708.63 696.015 1715.48 689.126C1749.35 654.352 1777.84 611.994 1799.47 564.066C1825.43 506.062 1840.63 440.258 1849.82 376.557C1858.32 318.336 1864.62 258.136 1878.35 196.804C1901.36 93.1732 1946.98 -14.9255 2013.82 -103.898C2052.61 -155.627 2098.5 -199.519 2149.89 -237.237C2242.77 -305.609 2354.8 -353.332 2478.37 -392.246C2546.03 -413.536 2615.57 -429.143 2685.24 -438.792" stroke="#874DF8" stroke-miterlimit="10"/>
<path d="M-115.05 1194.84C-12.7224 1224.18 133.385 1226.43 270.81 1209.35C342.372 1200.29 411.449 1185.06 473.791 1160.39C537.48 1135.12 590.177 1102.24 646.805 1066.32C664.839 1054.93 682.053 1043.05 699.095 1030.66C765.19 982.614 826.623 936.067 914.145 902.222C997.438 869.851 1080.9 845.541 1156.52 836.951C1175.04 834.825 1193.22 834.299 1210.68 834.517C1260.03 835.168 1305.28 843.427 1360.33 845.68C1394.73 847.021 1429.59 843.248 1464.78 835.596C1559.55 815.193 1634.97 771.521 1688.31 718.774C1695.63 711.507 1702.53 704.089 1708.78 696.708C1740.3 659.263 1765.67 615.506 1784.75 567.2C1807.73 508.666 1821.35 443.656 1831.55 380.774C1840.88 322.855 1850.01 262.316 1866.15 200.669C1893.06 96.8122 1941.66 -10.757 2009.92 -98.7595C2049.99 -150.211 2096.46 -193.435 2148.64 -230.322C2242.49 -297.346 2354.61 -343.67 2478.18 -382.585C2545.84 -403.874 2615.18 -419.645 2684.46 -429.798" stroke="#8D46F9" stroke-miterlimit="10"/>
<path d="M-106.621 1209.62C-3.72608 1247.35 140.961 1253.54 277.454 1234.75C348.675 1224.66 417.733 1207.15 479.699 1179.35C542.998 1151.12 594.699 1114.79 650.038 1076.31C667.7 1064.24 684.339 1051.52 700.994 1038.62C765.134 988.232 824.597 939.518 911.761 904.817C993.568 872.18 1077.97 849.395 1154.67 845.831C1173.52 844.915 1192.07 845.07 1209.85 846.496C1259.79 850.448 1305.56 862.537 1360.24 866.565C1394.54 869.141 1429.16 865.557 1463.73 857.59C1557.08 836.217 1632.74 784.81 1683.24 727.49C1690.17 719.719 1696.48 711.633 1702.36 703.572C1731.52 663.456 1753.56 618.313 1770.29 569.616C1790.52 510.54 1802.33 446.512 1813.56 384.096C1823.95 326.467 1835.5 265.437 1854.24 203.64C1885.27 99.5443 1936.64 -7.65895 2006.53 -94.5274C2047.65 -145.689 2095.13 -188.094 2147.7 -224.477C2242.51 -290.153 2354.73 -335.079 2478.5 -373.83C2545.92 -394.93 2615.06 -410.865 2684.41 -421.724" stroke="#9240FB" stroke-miterlimit="10"/>
<path d="M-98.2066 1224.57C5.25596 1270.69 148.507 1281 284.316 1260.15C355.396 1249.19 424.25 1229.06 485.811 1198.48C548.733 1167.11 599.222 1127.34 653.474 1086.47C670.562 1073.55 687.03 1060.31 703.095 1046.75C765.482 994.178 822.991 943.121 909.349 907.764C989.667 874.863 1075.1 855.177 1153.01 855.052C1172.22 854.993 1190.87 856.369 1209.2 858.993C1259.95 866.056 1305.82 881.999 1360.33 887.968C1394.74 891.766 1429.11 888.547 1462.85 880.277C1554.78 857.758 1630.65 798.969 1678.33 736.9C1684.89 728.448 1690.81 719.858 1696.08 711.306C1722.88 668.519 1741.8 621.977 1755.98 572.901C1773.23 513.296 1783.66 450.225 1795.71 388.464C1807.17 330.949 1821.33 269.591 1842.24 207.669C1877.17 103.347 1931.52 -3.32661 2002.84 -89.2249C2045.21 -139.932 2093.3 -181.846 2146.44 -217.385C2242.21 -281.713 2354.53 -325.241 2478.51 -364.004C2545.72 -385.092 2614.64 -401.015 2683.81 -412.39" stroke="#9839FC" stroke-miterlimit="10"/>
<path d="M-90.0094 1239.54C14.0206 1294.05 155.835 1308.47 290.729 1285.75C361.467 1273.76 430.302 1251.35 491.487 1217.62C553.803 1183.31 603.296 1140.08 656.476 1096.65C673.191 1083.05 689.085 1068.96 704.762 1054.9C765.179 1000.16 820.718 946.937 906.719 910.723C985.534 877.734 1071.85 860.277 1150.93 864.121C1170.48 865.095 1189.47 867.504 1207.93 871.173C1259.27 881.361 1305.66 901.31 1359.8 909.054C1394.32 914.074 1428.46 911.044 1461.35 902.472C1551.89 878.63 1627.97 812.459 1672.81 745.817C1678.99 736.685 1684.54 727.415 1689.43 718.359C1713.85 673.077 1729.68 624.959 1741.52 575.493C1756.01 515.346 1764.64 453.081 1777.69 392.139C1789.99 334.926 1806.99 273.229 1830.3 210.992C1869.37 106.255 1926.47 0.123834 1999.2 -84.6278C2042.63 -135.046 2091.52 -176.304 2145.25 -211.175C2241.99 -274.155 2354.4 -316.284 2478.38 -355.048C2545.58 -375.959 2614.31 -392.222 2683.1 -404.101" stroke="#9D32FE" stroke-miterlimit="10"/>
<path d="M-81.5956 1254.49C77.9748 1350.36 321.578 1343.1 497.381 1236.76C559.321 1199.31 607.602 1152.64 659.694 1106.81C739.83 1036.2 796.721 959.907 904.103 913.507C1000.51 871.778 1112.76 858.786 1207.09 883.329C1259.22 896.805 1305.73 920.432 1359.7 930.116C1503.13 955.676 1635.07 830.121 1682.96 725.752C1731.89 619.392 1733.92 506.272 1759.65 396.167C1795.09 243.738 1876.73 53.7148 1995.55 -79.8542C2120.58 -220.275 2285.28 -285.611 2478.42 -345.575C2545.4 -366.474 2613.92 -382.724 2682.75 -395.132" stroke="#A32BFF" stroke-miterlimit="10"/>
</g>
</g>
</svg>
