<svg width="1462" height="1505" viewBox="0 0 1462 1505" fill="none" xmlns="http://www.w3.org/2000/svg">
<path d="M539.318 472.45C526.117 480.18 507.646 471.747 502.896 455.822C492.068 466.303 471.914 455.592 472.144 439.477C455.59 444.582 437.292 425.382 440.554 406.334C421.025 404.686 407.703 376.328 417.429 357.107C403.161 353.15 391.309 339.655 387.904 323.5C384.499 307.345 389.696 289.256 400.849 278.45C390.446 269.561 385.058 253.754 387.496 239.274C389.934 224.789 400.077 212.326 412.639 208.374C405.143 197.429 403.174 181.956 407.642 169.067C412.11 156.179 422.855 146.336 434.932 144.072C429.905 128.776 432.568 110.569 441.682 97.9198C450.801 85.2702 466.031 78.6461 480.295 81.1274C487.674 56.0885 519.454 45.6556 537.548 62.3309C541.4 37.9903 568.616 22.6295 588.133 33.7912C599.677 16.1225 623.991 11.3117 640.154 23.5014C656.726 -1.37265 691.382 -7.62804 713.974 10.1751C732.515 -6.50016 763.644 0.097946 775.582 23.2412C796.119 8.76961 826.688 17.8273 838.314 41.8252C863.18 35.9992 890.513 56.0278 895.962 84.0729C912.629 83.5654 926.467 105.416 920.671 123.093C935.911 127.154 944.179 150.297 935.702 165.185C954.308 171.757 963.683 200.167 953.436 218.911C970.996 229.86 976.887 259.211 965.218 277.656C978.774 288.701 980.865 313.779 969.378 327.495C981.247 344.349 973.4 373.591 955.249 380.146C964.351 383.573 970.185 395.554 967.877 406.083C965.57 416.611 955.462 424.124 945.996 422.346C945.576 435.121 937.247 447.059 926.358 450.504C915.47 453.944 902.872 448.617 896.652 437.945C879.439 456.456 850.682 459.28 830.909 444.4C812.169 467.86 780.675 469.565 752.713 469.591C723.965 469.617 695.217 469.639 666.464 469.665C647.703 469.682 628.715 469.725 610.526 474.931C596.367 478.983 577.718 484.266 570.122 470.164C563.927 475.226 555.555 476.727 539.318 472.45Z" fill="#FFE0D4"/>
<mask id="mask0_306_15" style="mask-type:luminance" maskUnits="userSpaceOnUse" x="0" y="42" width="1462" height="1463">
<path d="M730.953 1504.54C327.259 1504.54 0 1177.28 0 773.585C0 369.891 327.259 42.632 730.953 42.632C1134.65 42.632 1461.91 369.891 1461.91 773.585C1461.91 1177.28 1134.65 1504.54 730.953 1504.54Z" fill="white"/>
</mask>
<g mask="url(#mask0_306_15)">
<path d="M388.694 567.187C447.152 494.773 525.939 480.449 618.946 477.139C711.953 473.834 762.061 451.901 854.543 462.321C898.756 467.305 962.793 486.318 1019.28 508.507C1060.69 524.775 1114.34 551.618 1149.41 576.818C1179.47 686.734 1185.08 802.186 1178.03 915.919C1170.97 1029.65 1151.48 1142.2 1128.27 1256.27C1106.39 1286.71 1129.62 1462.14 1119.32 1465.79C953.202 1524.61 656.86 1510.09 409.963 1452.66C393.383 1458.07 407.351 1273.19 396.649 1259.42C385.948 1245.65 381.414 1228.19 377.384 1211.22C349.465 1093.77 332.963 973.619 328.187 852.992C324.691 764.775 325.406 645.579 388.694 567.187Z" fill="#91C8CF"/>
<path d="M325.09 924.023C305.604 1088.24 316.227 1245.75 311.529 1407.59C311.529 1407.59 455.716 1461.08 457.178 1447.65C460.023 1368.18 473.51 1182.07 464.192 1176.16C415.108 1145.04 415.277 1082.44 431.896 911.963L325.09 924.023Z" fill="#FFB5A1"/>
<path d="M308.15 946.298C305.413 874.89 309.369 803.283 318.652 732.43C323.541 695.102 330.009 657.609 344.251 622.757C358.492 587.906 381.141 555.561 412.874 535.303C425.948 526.957 442.172 520.667 456.778 525.898C470.534 530.822 478.967 544.526 485.067 557.804C500.167 590.678 507.633 626.47 514.296 662.029C532.433 758.831 545.465 856.588 556.301 954.749C479.241 984.685 391.27 985.527 308.15 946.298Z" fill="#91C8CF"/>
<path d="M447.946 607.539C443.704 636.778 440.164 666.094 437.331 695.471C434.377 724.839 432.087 754.264 430.052 783.706C428.178 813.156 426.569 842.629 425.619 872.127C424.547 901.621 424.196 931.15 424.552 960.692C427.562 931.302 430.174 901.912 432.377 872.505C434.702 843.106 436.681 813.69 438.706 784.278C440.567 754.854 442.489 725.438 444.059 695.987C445.747 666.545 447.044 637.068 447.946 607.539Z" fill="black"/>
<path d="M311.364 913.438C320.171 916.887 329.254 919.268 338.433 921.107C347.608 923.003 356.905 924.153 366.227 924.964C375.562 925.61 384.924 925.905 394.281 925.445C403.634 925.042 412.978 924.083 422.205 922.019C412.878 920.47 403.651 919.537 394.446 918.674C385.245 917.754 376.066 917.099 366.891 916.314C357.703 915.689 348.532 914.922 339.301 914.418C330.074 913.859 320.817 913.355 311.364 913.438Z" fill="black"/>
<path d="M401.647 608.064C399.5 621.052 399.035 634.283 399.703 647.449C400.315 660.632 402.254 673.746 405.091 686.652C408.084 699.518 411.984 712.189 417.112 724.353C422.183 736.526 428.308 748.264 435.852 759.053C431.527 746.629 427.263 734.4 423.476 722.054C419.745 709.695 416.314 697.297 413.546 684.738C410.622 672.215 408.375 659.548 406.414 646.79C404.51 634.01 403.091 621.139 401.647 608.064Z" fill="black"/>
<path d="M369.754 699.609C367.932 713.868 371.181 728.609 376.439 742C381.653 755.526 388.91 767.972 396.055 780.166C403.313 792.243 410.34 804.298 415.993 816.93C421.571 829.576 425.584 842.937 426.109 857.235C429.245 843.193 426.976 828.131 422.304 814.484C417.68 800.689 410.696 787.992 403.508 775.737C396.194 763.599 388.841 751.691 382.612 739.28C376.439 726.852 371.567 713.79 369.754 699.609Z" fill="black"/>
<path d="M456.019 1170.95C463.168 1175.64 471.606 1178.34 480.178 1179.37C488.763 1180.45 497.499 1180.09 506.067 1178.87C523.211 1176.24 539.439 1170.37 555.733 1166.62C559.789 1165.59 563.949 1165.15 568.065 1164.51C572.204 1164.01 576.26 1162.99 580.442 1162.86L592.935 1162.2L596.054 1162.04L599.186 1162.16L605.45 1162.39C613.801 1162.43 622.134 1163.54 630.468 1164.38C634.632 1164.82 638.766 1165.69 642.918 1166.32C647.065 1167.01 651.216 1167.64 655.333 1168.59C688.423 1175.1 721.023 1185.1 754.521 1192.16C762.85 1194.06 771.336 1195.43 779.764 1196.9C783.998 1197.56 788.28 1197.98 792.531 1198.52C796.782 1199.05 801.029 1199.61 805.332 1199.72L818.177 1200.32C822.463 1200.32 826.754 1200.1 831.026 1200L837.434 1199.8C839.564 1199.61 841.685 1199.31 843.806 1199.05L856.482 1197.33C822.381 1199.72 788.796 1193.99 756.048 1185.56C739.638 1181.42 723.284 1176.78 706.877 1172.23C690.41 1167.82 673.882 1163.43 657.016 1160.08C640.146 1156.93 623.015 1154.29 605.659 1154.2L599.165 1154.11L595.92 1154.07L592.671 1154.31L579.687 1155.3C577.518 1155.38 575.379 1155.8 573.241 1156.2L566.829 1157.36C562.569 1158.2 558.266 1158.84 554.106 1160.07C537.379 1164.55 521.718 1171.19 505.316 1174.7C489.105 1178.34 471.419 1178.65 456.019 1170.95Z" fill="black"/>
<path d="M1189.64 913.668C1184.89 1029.63 1184.6 1144.57 1152.5 1256.1C1145.16 1281.61 1126.64 1302.87 1108.64 1322.39C1090.64 1341.92 1043.16 1355.94 1018.21 1346.87C993.302 1337.82 915.001 1113.01 946.417 943.006C949.037 928.816 952.495 914.214 961.409 902.871C973.946 886.915 994.942 880.309 1015 877.233C1069.69 868.839 1127.28 880.946 1189.64 913.668Z" fill="#FFB5A1"/>
<path d="M942.509 937.974C944.331 879.588 946.187 820.878 957.666 763.603C969.144 706.329 990.825 650.017 1028.35 605.253C1040.96 590.209 1055.58 576.362 1073.29 567.89C1091 559.418 1112.19 556.833 1130.38 564.238C1154.84 574.202 1169.41 599.983 1175.57 625.668C1181.72 651.358 1181.32 678.166 1185.95 704.173C1192.48 740.82 1207.8 776.557 1213.06 826.682C1216.94 863.703 1216.31 922.548 1205.63 953.465C1127.88 1008.42 1041.85 981.748 942.509 937.974Z" fill="#91C8CF"/>
<path d="M1053.11 583.012C1036.51 597.792 1021.92 614.901 1009.34 633.372C996.695 651.826 986.21 671.763 977.738 692.503C969.417 713.304 963.119 734.933 959.392 756.988C955.614 779.016 954.234 801.461 955.917 823.62C957.848 801.496 961.093 779.702 966.029 758.32C971.018 736.964 977.512 716.002 985.776 695.748C993.888 675.433 1003.77 655.843 1015.02 637.007C1026.31 618.198 1039.12 600.265 1053.11 583.012Z" fill="black"/>
<path d="M1046.19 651.579C1037.54 666.011 1029.47 680.661 1021.46 695.327L997.636 739.389L974.224 783.667C966.48 798.477 958.789 813.325 951.601 828.539C961.869 815.208 971.222 801.261 980.102 787.028C989.029 772.822 997.311 758.228 1005.28 743.475C1013.11 728.643 1020.64 713.647 1027.49 698.334C1034.4 683.042 1040.8 667.521 1046.19 651.579Z" fill="black"/>
<path d="M1077.53 712.879C1066.51 723.832 1056.03 735.172 1045.65 746.581C1035.23 757.951 1025.07 769.52 1014.84 781.029C1004.72 792.646 994.56 804.216 984.618 816.006C974.636 827.762 964.737 839.609 955.297 851.955C967.331 842.121 978.64 831.532 989.593 820.6C1000.59 809.703 1011.08 798.329 1021.35 786.755C1031.49 775.077 1041.43 763.213 1050.82 750.91C1060.26 738.642 1069.31 726.071 1077.53 712.879Z" fill="black"/>
<path d="M987.598 918.695C1006.92 913.308 1026.73 912.692 1046.39 913.715C1066.06 914.796 1085.77 917.498 1105.88 918.721C1125.9 919.776 1146.69 919.411 1166.4 913.364C1176.21 910.414 1185.64 906.141 1194.15 900.48C1198.34 897.552 1202.34 894.377 1205.95 890.802C1209.51 887.184 1212.67 883.224 1215.38 879.011C1201.77 893.839 1183.47 902.406 1164.65 906.822C1145.73 911.234 1126.05 911.243 1106.38 910.063C1086.68 909.043 1066.74 906.683 1046.53 906.97C1026.45 907.169 1005.72 909.876 987.598 918.695Z" fill="black"/>
</g>
<path d="M899.957 478.141C887.911 547.61 875.409 618.441 842.158 680.617C808.911 742.794 750.76 795.965 680.776 804.528C649.477 808.358 615.41 802.172 592.306 780.712C564.673 755.044 558.387 714.033 557.333 676.336C556.002 628.561 560.448 580.631 578.104 528.714C596.002 537.862 617.167 537.229 637.2 535.572C725.396 528.284 812.269 505.206 899.957 478.141Z" fill="#FFB5A1"/>
<path d="M567.753 515.248C576.212 524.111 578.715 538.162 573.826 549.397C568.942 560.633 556.96 568.389 544.71 568.241C544.575 561.86 552.293 557.353 558.418 559.145C564.543 560.936 568.53 567.148 569.64 573.434C571.293 582.774 567.411 592.881 559.932 598.712C552.453 604.542 531.427 616.237 533.049 601.969C534.706 587.398 567.519 605.349 565.875 619.924C563.346 642.317 527.163 656.728 527.952 637.545C528.755 618.094 559.056 634.305 562.461 656.91C564.187 668.375 563.932 681.524 554.544 687.623C548.939 691.263 534.147 687.207 534.967 677.381C535.453 671.525 546.206 668.02 550.727 672.015C585.24 702.52 545.122 732.669 536.78 725.108C528.234 717.365 540.146 710.385 545.269 709.816C553.95 708.849 560.053 711.699 564.118 718.193C567.753 723.997 578.767 752.35 562.101 760.037C557.615 762.107 546.606 764.493 543.378 760.749C536.667 752.958 543.643 742.685 553.121 742.447C567.753 742.078 582.494 750.468 588.714 765.712C600.349 794.225 569.948 807.821 567.454 788.334C565.411 772.37 611.103 769.126 619.319 797.548C621.67 805.678 611.285 828.023 602.279 810.549C599.039 804.263 609.52 790.881 631.461 791.436C643.634 791.744 657.389 792.902 663.571 804.97C666.846 811.369 664.543 819.594 657.962 822.483C648.002 826.851 640.475 815.022 643.408 806.415C645.92 799.049 653.568 794.52 661.198 792.993C673.11 790.612 700.522 796.776 706.782 807.122C715.276 821.16 699.433 821.732 694.197 814.64C686.766 804.58 682.827 786.386 712.252 783.883C726.342 782.682 732.085 783.419 738.358 792.972C744.77 802.732 735.56 819.364 728.025 802.246C724.325 793.848 732.667 778.982 740.271 773.845C749.602 767.547 766.286 768.392 777.417 779.086C787.364 788.642 774.385 803.014 766.117 790.794C765.696 790.174 755.714 776.444 761.714 762.927C764.707 756.181 768.334 752.216 774.22 747.765C781.005 742.633 780.979 744.343 789.464 743.722C797.945 743.102 807.376 748.047 809.089 756.381C800.018 764.198 784.384 755.352 782.549 743.518C780.714 731.689 788.458 720.34 797.737 712.775C804.743 707.066 813.796 702.537 822.585 704.633C831.374 706.728 837.716 718.219 832.124 725.32C818.039 716.918 809.701 699.787 811.77 683.519C813.839 667.248 826.203 652.754 841.941 648.143C851.012 645.488 862.212 646.525 867.587 654.68C872.437 662.046 870.489 670.757 862.008 673.165C855.18 675.104 848.908 669 847.702 662.398C846.604 656.398 848.708 650.277 851.35 644.777C855.471 636.201 861.887 627.672 871.192 625.681C880.497 623.694 891.698 632.331 888.809 641.393C878.883 647.349 865.865 636.036 865.639 624.462C865.414 612.888 873.049 602.828 880.306 593.81C884.223 588.947 888.479 583.828 894.982 582.821C898.357 582.297 901.974 583.451 904.091 586.127C909.258 592.66 901.094 600.59 894.218 599.033C888.175 597.662 884.31 591.324 883.781 585.151C883.252 578.978 885.317 572.909 887.355 567.057C889.871 559.834 892.483 552.434 897.385 546.56C902.964 539.871 912.247 535.459 920.624 539.107C926.432 541.637 930.033 548.022 928.12 554.06C924.749 564.68 908.503 562.68 903.016 553.7C897.762 545.103 899.471 534.101 901.849 524.315C904.239 514.45 907.822 503.727 918.06 499.948C924.055 497.736 931.117 499.914 933.707 505.757C938.34 516.211 924.025 523.287 916.069 517.96C909.028 513.244 907.601 503.007 910.533 495.059C913.466 487.112 919.721 480.922 925.786 475.009" stroke="#FFF4ED" stroke-width="2" stroke-miterlimit="10" stroke-linecap="round" stroke-linejoin="round"/>
<path d="M619.996 583.845C619.996 576.562 614.343 570.658 607.372 570.658C600.401 570.658 594.749 576.562 594.749 583.845C594.749 591.129 600.401 597.033 607.372 597.033C614.343 597.028 619.996 591.129 619.996 583.845Z" fill="#FFE0D4"/>
<path d="M625.045 607.817C625.045 600.534 619.393 594.634 612.422 594.634C605.45 594.634 599.794 600.538 599.794 607.817C599.794 615.101 605.446 621 612.422 621C619.393 621.004 625.045 615.101 625.045 607.817Z" fill="#FFE0D4"/>
<path d="M627.57 629.394C627.57 622.111 621.917 616.207 614.946 616.207C607.975 616.207 602.318 622.111 602.318 629.394C602.318 636.678 607.971 642.582 614.946 642.582C621.922 642.582 627.57 636.678 627.57 629.394Z" fill="#FFE0D4"/>
<path d="M632.619 650.971C632.619 643.688 626.967 637.788 619.996 637.788C613.025 637.788 607.372 643.692 607.372 650.971C607.372 658.255 613.025 664.159 619.996 664.159C626.967 664.155 632.619 658.251 632.619 650.971Z" fill="#FFE0D4"/>
<path d="M645.247 672.544C645.247 665.261 639.595 659.357 632.619 659.357C625.648 659.357 619.996 665.261 619.996 672.544C619.996 679.828 625.648 685.732 632.619 685.732C639.595 685.732 645.247 679.828 645.247 672.544Z" fill="#FFE0D4"/>
<path d="M662.92 689.328C662.92 682.045 657.268 676.145 650.297 676.145C643.326 676.145 637.673 682.049 637.673 689.328C637.673 696.612 643.326 702.516 650.297 702.516C657.268 702.516 662.92 696.607 662.92 689.328Z" fill="#FFE0D4"/>
<path d="M685.647 694.122C685.647 686.838 679.995 680.938 673.023 680.938C666.052 680.938 660.4 686.842 660.4 694.122C660.4 701.405 666.052 707.305 673.023 707.305C679.995 707.305 685.647 701.405 685.647 694.122Z" fill="#FFE0D4"/>
<path d="M708.374 694.122C708.374 686.838 702.721 680.938 695.75 680.938C688.779 680.938 683.127 686.842 683.127 694.122C683.127 701.405 688.779 707.305 695.75 707.305C702.721 707.305 708.374 701.405 708.374 694.122Z" fill="#FFE0D4"/>
<path d="M731.101 686.929C731.101 679.646 725.448 673.742 718.477 673.742C711.506 673.742 705.853 679.646 705.853 686.929C705.853 694.213 711.506 700.112 718.477 700.112C725.444 700.112 731.101 694.213 731.101 686.929Z" fill="#FFE0D4"/>
<path d="M743.724 667.751C743.724 660.467 738.072 654.563 731.101 654.563C724.129 654.563 718.477 660.467 718.477 667.751C718.477 675.034 724.129 680.938 731.101 680.938C738.072 680.938 743.724 675.034 743.724 667.751Z" fill="#FFE0D4"/>
<path d="M756.352 646.174C756.352 638.89 750.7 632.99 743.724 632.99C736.753 632.99 731.101 638.895 731.101 646.174C731.101 653.457 736.753 659.357 743.724 659.357C750.695 659.361 756.352 653.457 756.352 646.174Z" fill="#FFE0D4"/>
<path d="M763.926 624.601C763.926 617.317 758.274 611.413 751.303 611.413C744.331 611.413 738.679 617.317 738.679 624.601C738.679 631.884 744.331 637.784 751.303 637.784C758.274 637.784 763.926 631.88 763.926 624.601Z" fill="#FFE0D4"/>
<path d="M780.038 101.486C828.927 150.006 851.897 194.098 866.889 261.319C881.881 328.545 877.196 400.036 853.554 464.728C811.584 579.585 729.639 634.639 654.019 610.819C585.496 589.233 546.879 536.019 503.798 377.248C488.771 321.869 478.174 262.898 493.144 207.506C507.854 153.077 547.946 106.084 599.377 82.9798C650.809 59.8842 737.521 59.2899 780.038 101.486Z" fill="#FFB5A1"/>
<path d="M614.126 481.863C619.783 489.98 627.21 497.293 636.697 501.801C641.382 504.134 646.614 505.54 651.989 506.052C657.376 506.49 662.873 505.748 668.026 504.121C678.32 500.621 686.866 493.55 692.709 485.034C698.496 476.588 702.47 466.42 701.594 456.347C698.848 465.878 693.529 473.894 687.404 480.831C681.157 487.637 673.657 493.194 665.306 495.888C657.012 498.79 647.933 498.4 639.244 495.55C630.468 492.734 622.321 487.464 614.126 481.863Z" fill="black"/>
<path d="M602.722 451.545C595.798 457.727 590.341 465.578 586.398 474.137C582.39 482.692 580.056 492.036 579.179 501.497C578.459 510.967 579.197 520.58 581.769 529.685C584.272 538.778 588.437 547.415 594.362 554.568C591.634 545.714 589.547 537.056 588.402 528.328C587.322 519.608 587.018 510.876 587.821 502.217C588.463 493.545 590.215 484.982 592.697 476.545C595.243 468.103 598.679 459.878 602.722 451.545Z" fill="black"/>
<path d="M689.937 433.429C697.689 439.407 705.138 445.298 712.148 451.614C719.11 457.965 725.748 464.572 731.738 471.73C737.851 478.783 743.312 486.366 748.357 494.292C753.355 502.26 757.762 510.633 761.965 519.474C761.258 509.691 758.439 500.078 754.322 491.09C750.249 482.054 744.713 473.703 738.336 466.108C731.838 458.616 724.489 451.853 716.312 446.309C708.183 440.73 699.333 436.21 689.937 433.429Z" fill="black"/>
<path d="M633.114 307.567C629.904 323.539 624.937 338.939 620.464 354.504L613.437 377.738L609.879 389.407C608.7 393.489 607.776 397.559 607.03 401.706C606.344 405.857 605.845 410.061 605.706 414.342C605.524 418.606 605.646 422.975 606.505 427.382C607.303 431.738 608.891 436.34 612.096 440.197C612.491 440.678 612.864 441.173 613.28 441.633L614.751 442.843C615.749 443.628 616.69 444.491 617.892 444.925C619.024 445.415 620.213 446.023 621.306 446.344C622.382 446.613 623.466 446.955 624.525 447.129C633.001 448.838 641.339 448.86 649.633 448.083C653.763 447.61 657.888 446.968 661.883 445.771C665.853 444.591 669.831 442.96 672.945 440.266C669.323 442.184 665.341 442.917 661.402 443.415C657.446 443.875 653.446 443.988 649.468 443.828C641.547 443.606 633.513 442.613 626.173 440.561C622.299 439.511 620.03 437.976 618.052 435.464C616.161 432.978 615.05 429.59 614.599 425.964C613.489 418.75 614.222 410.828 615.58 403.168C616.204 399.311 617.016 395.433 618.035 391.694C619.08 387.933 620.33 383.889 621.319 379.977C623.332 372.06 625.375 364.165 627.006 356.161C628.741 348.183 630.194 340.136 631.396 332.046C632.48 323.964 633.461 315.761 633.114 307.567Z" fill="black"/>
<path d="M572.091 548.061C580.646 564.593 591.504 580.236 605.342 593.28C618.963 606.472 636.098 616.675 654.995 621.295C664.443 623.49 674.229 624.297 683.886 623.599C693.533 622.831 703.025 620.653 711.94 617.17C729.786 610.329 745.741 598.902 757.341 584.257C743.178 596.334 726.953 605.461 709.732 610.767C692.544 616.085 674.225 617.113 657.003 612.858C648.362 610.884 640.042 607.557 632.155 603.345C624.204 599.228 616.807 593.992 609.801 588.227C595.746 576.696 583.665 562.658 572.091 548.061Z" fill="black"/>
<path d="M720.026 338.332C718.963 328.419 712.399 320.993 705.363 321.748C698.327 322.502 693.486 331.148 694.549 341.065C695.611 350.977 702.175 358.404 709.211 357.649C716.247 356.894 721.088 348.244 720.026 338.332Z" fill="black"/>
<path d="M565.333 355.827C564.27 345.915 557.706 338.488 550.67 339.243C543.634 339.998 538.793 348.643 539.855 358.56C540.918 368.472 547.482 375.899 554.518 375.144C561.554 374.389 566.395 365.739 565.333 355.827Z" fill="black"/>
<g opacity="0.6">
<path d="M781.148 381.295C777.665 363.783 756.192 353.294 733.192 357.87C710.187 362.447 694.366 380.35 697.85 397.867C701.333 415.379 722.806 425.868 745.806 421.292C768.806 416.715 784.632 398.812 781.148 381.295Z" fill="#F49075"/>
<path d="M602.739 410.273C599.256 392.761 577.783 382.271 554.783 386.848C531.778 391.425 515.957 409.332 519.441 426.844C522.924 444.357 544.397 454.846 567.397 450.27C590.402 445.693 606.223 427.786 602.739 410.273Z" fill="#F49075"/>
</g>
<path d="M765.805 290.219C744.987 278.185 719.683 276.867 695.95 277.903C686.341 278.324 676.06 280.398 669.497 287.43C667.77 289.278 666.295 291.681 666.66 294.184C667.106 297.286 670.312 299.372 673.431 299.676C676.55 299.98 679.622 298.947 682.623 298.049C706.552 290.887 732.831 291.854 756.166 300.756C759.935 302.192 764.035 303.858 767.874 302.626C771.717 301.389 774.238 295.099 765.805 290.219Z" fill="#FFE0D4"/>
<path d="M501.369 309.974C520.538 295.464 545.491 291.03 569.172 289.13C578.759 288.362 589.218 289.152 596.597 295.316C598.536 296.939 600.297 299.142 600.245 301.667C600.184 304.799 597.26 307.263 594.202 307.953C591.144 308.643 587.968 307.992 584.88 307.471C560.253 303.32 534.294 307.523 512.236 319.236C508.67 321.127 504.809 323.283 500.844 322.537C496.879 321.791 493.599 315.852 501.369 309.974Z" fill="#FFE0D4"/>
<path d="M637.959 332.007C630.793 332.259 623.622 332.515 616.456 332.766C614.374 332.84 612.118 332.979 610.543 334.341C609.94 334.861 609.515 335.482 609.229 336.167C607.58 340.119 611.181 344.357 615.458 344.123L631.739 343.238C634.65 343.082 637.803 342.826 639.981 340.883C642.154 338.943 642.315 334.679 637.959 332.007Z" fill="#7A300A"/>
<path d="M775.092 318.273C797.034 300.396 815.132 284.311 840.631 272.03C844.353 270.238 848.253 268.52 852.382 268.39C856.512 268.256 860.963 270.06 862.833 273.743C864.577 277.175 863.705 281.469 861.622 284.701C859.54 287.937 856.417 290.336 853.354 292.67C828.58 311.558 820.116 316.468 795.342 335.356C793.468 336.783 780.402 348.734 778.459 347.407C777.014 346.418 780.302 331.773 775.092 318.273Z" fill="#7A300A"/>
<path d="M755.433 301.576C724.698 300.57 693.846 303.224 663.731 309.458C655.09 311.245 645.738 313.831 640.666 321.054C636.667 326.745 636.22 334.341 637.873 341.099C639.521 347.858 643.044 353.988 646.518 360.013C651.642 368.893 657.125 378.146 665.888 383.464C675.44 389.264 687.278 389.42 698.448 389.039C714.313 388.496 730.146 387.212 745.889 385.191C754.552 384.076 763.779 382.462 770.095 376.428C778.749 368.16 779.018 354.664 778.697 342.7C778.476 334.423 778.207 325.934 775.079 318.269C771.952 310.595 765.54 301.906 755.433 301.576Z" stroke="#7A300A" stroke-width="2" stroke-miterlimit="10" stroke-linecap="round" stroke-linejoin="round"/>
<path d="M612.803 334.224C611.263 325.383 604.318 318.204 596.254 314.273C588.19 310.343 579.071 309.198 570.122 308.564C544.493 306.747 518.599 308.686 493.526 314.295C489.366 315.223 484.832 316.529 482.512 320.104C480.386 323.379 480.746 327.613 481.18 331.491C482.351 341.911 483.548 352.448 487.157 362.291C490.767 372.133 497.079 381.373 506.271 386.414C513.953 390.626 522.955 391.598 531.7 392.188C544.645 393.06 557.784 393.264 570.438 390.392C583.092 387.525 595.33 381.326 603.481 371.231C611.632 361.141 615.003 346.847 612.803 334.224Z" stroke="#7A300A" stroke-width="2" stroke-miterlimit="10" stroke-linecap="round" stroke-linejoin="round"/>
<path d="M791.269 227.236C785.49 234.697 784.601 244.917 789.022 253.073C793.442 261.228 802.999 267.006 813.18 267.679C805.22 272.316 803.315 283.356 809.349 289.889C815.384 296.422 827.968 296.956 834.675 290.961C824.333 295.819 820.264 308.881 826.32 317.757C832.375 326.632 847.32 329.5 856.976 323.639C848.296 328.623 849.407 341.39 857.31 347.303C865.21 353.215 876.944 353.328 886.791 350.53C887.013 356.716 897.376 358.924 902.963 355.211C908.551 351.498 910.312 344.873 911.696 338.809C914.988 324.368 918.281 309.931 921.569 295.49C923.317 287.829 924.172 278.142 916.741 273.925C923.994 267.106 927.343 257.181 925.508 247.95C923.669 238.718 916.693 230.407 907.241 226.199C911.895 220.486 912.533 212.408 908.82 206.179C905.102 199.95 897.216 195.863 889.264 196.054C890.136 188.948 885.729 181.561 878.619 178.19C871.509 174.82 862.126 175.683 855.944 180.272C845.268 173.887 830.367 173.601 819.392 179.565C808.417 185.53 811.236 201.455 791.269 227.236Z" fill="#FFE0D4"/>
<path d="M871.365 81.7738C879.334 95.599 887.516 110.244 886.839 125.831C886.162 141.417 873.027 157.723 855.84 157.229C868.255 170.065 862.598 193.339 845.381 200.249C846.969 208.374 843.342 217.171 836.262 222.36C829.187 227.548 818.949 228.919 810.521 225.808C804.205 235.343 790.696 240.427 778.797 237.755C766.898 235.083 757.562 224.867 756.877 213.762C746.722 219.614 732.202 218.217 723.626 210.565C715.046 202.912 713.263 189.768 719.54 180.459C708.339 181.461 696.41 182.35 686.402 177.674C676.394 172.998 670.022 160.482 676.62 152.21C665.614 164.925 641.508 165.471 629.813 153.273C623.987 168.187 603.589 176.858 587.227 171.375C585.999 187.04 569.263 200.31 551.989 199.325C557.546 206.621 558.153 216.777 553.498 224.576C548.844 232.376 539.144 237.465 529.366 237.235C532.798 246.167 530.59 256.686 523.788 263.853C516.986 271.019 505.841 274.555 495.595 272.798C484.286 279.109 467.762 275.873 460.331 265.892C452.9 255.905 455.763 240.796 466.448 233.638C443.149 210.391 443.01 171.015 466.144 147.629C462.548 131.132 467.298 113.289 478.802 100.098C490.303 86.9057 508.349 78.6071 526.876 77.9824C542.298 50.9306 578.277 34.9191 611.298 40.4197C610.4 43.4519 606.695 45.5558 603.294 44.9659C610.665 33.5136 623.969 25.3668 638.432 23.4494C652.895 21.532 668.213 25.8874 678.888 34.9451C697.303 19.1504 731.682 23.7878 744.236 43.7599C757.766 35.7129 775.665 34.0645 790.7 39.4826C794.631 40.9012 798.57 42.9444 800.587 46.315C802.604 49.6856 801.866 54.6266 798.118 56.4052C809.657 49.7897 825.747 50.5272 836.492 58.1664C847.238 65.8013 851.879 79.8 847.563 91.5473C855.141 84.4894 868.264 83.0362 877.491 88.2331C886.718 93.4257 891.099 104.739 871.365 81.7738Z" fill="#FFE0D4"/>
<path d="M886.935 99.347C888.518 103.143 890.062 106.908 890.166 110.561C890.201 112.387 890.054 114.183 889.516 115.697C888.978 117.207 888.093 118.3 887.043 119.046C885.963 119.801 884.514 120.265 882.757 120.59C880.944 120.903 878.931 121.362 877.586 121.315C876.111 121.271 875.409 120.959 874.662 120.269C873.89 119.614 873.322 118.66 873.083 117.523L872.732 120.425C872.962 120.07 873.04 120.143 872.932 120.187C872.84 120.239 872.801 120.213 873.001 120.3C873.318 120.304 874.32 122.052 874.45 123.865C874.836 127.679 873.747 131.622 870.771 134.359C867.878 137.205 863.761 138.753 860.234 136.918C856.647 135.023 853.927 130.242 853.372 125.149C851.905 130.16 852.89 136.372 857.584 140.693C859.983 142.757 863.496 143.812 866.715 143.425C869.964 143.074 872.871 141.773 875.409 139.938C880.458 136.177 883.525 129.457 882.831 123.054C882.427 119.883 881.82 116.2 877.873 113.155C875.981 111.771 873.196 111.172 870.624 111.91C868.017 112.643 866.117 114.652 865.184 116.565L865.132 116.669C864.689 117.571 864.611 118.564 864.832 119.467C865.518 122.252 867.132 124.95 869.548 126.789C870.771 127.687 872.172 128.381 873.734 128.763C875.209 129.114 876.667 129.166 877.981 129.054C880.671 128.772 882.584 128.16 884.67 127.475C886.787 126.742 889.199 125.674 891.168 123.753C893.181 121.853 894.279 119.198 894.565 116.768C894.86 114.322 894.587 112.014 893.923 109.875C892.617 105.507 889.819 102.21 886.935 99.347Z" fill="#272525"/>
<path d="M702.504 43.3652C709.454 49.5815 709.02 60.2747 703.407 64.3958C700.652 66.5561 696.956 67.7577 693.729 67.1981C692.189 66.9856 690.427 66.3479 689.89 65.7449C689.612 65.489 689.673 65.3458 689.72 65.541C689.738 65.6668 689.733 65.5237 689.911 65.3068C690.05 65.0899 690.319 64.8556 690.449 64.8122C690.514 64.7515 690.618 64.7298 690.961 64.8079C691.577 64.925 692.471 65.8533 692.753 66.7123C693.095 67.5799 693.017 69.0288 692.354 70.3866C691.698 71.74 690.64 72.9937 689.148 74.1476C687.686 75.2842 685.79 76.1865 683.886 77.0411C682.007 77.874 680.099 78.4639 678.264 78.5116C676.381 78.6157 674.694 78.1429 673.336 76.6984C672.026 75.3362 671.097 73.1368 672.134 70.9939C670.269 72.5469 670.113 75.7136 671.327 78.0214C672.399 80.4984 675.175 82.2423 677.795 82.7455C680.493 83.2921 683.14 82.9711 685.573 82.4679C687.981 81.9473 690.341 81.1535 692.731 79.8868C697.429 77.5182 702.11 71.8485 700.696 64.6301C699.811 61.1163 697.416 58.1968 693.733 56.8C691.95 56.1406 689.642 55.9801 687.577 56.7262C685.56 57.4289 683.981 58.6956 682.814 60.3224C681.691 61.9491 680.927 64.1008 681.201 66.4954C681.496 68.9637 682.849 70.8681 684.276 72.0914C687.213 74.4643 690.046 75.1237 692.974 75.3579C698.795 75.6486 704.396 73.3755 708.122 69.2153C709.957 67.1461 711.458 64.6474 712.005 61.9275C712.573 59.2379 712.517 56.5223 711.853 54.028C710.521 49.0783 706.981 44.8271 702.504 43.3652Z" fill="#272525"/>
<path d="M945.354 313.913C948.374 318.247 946.981 323.491 944.543 325.175C943.389 326.06 941.802 326.394 940.275 326.285C938.735 326.151 937.399 325.509 936.678 324.684C935.121 322.906 932.414 322.724 930.636 324.285C929.412 325.357 928.944 326.975 929.278 328.459L929.308 328.593C929.998 331.612 928.319 335.781 925.27 337.664C923.756 338.601 921.613 339.186 919.331 338.948C917.014 338.805 914.633 337.924 912.377 336.158C912.928 339.03 915.158 341.542 917.947 343.095C920.771 344.561 924.354 345.203 927.859 344.11C934.887 341.915 939.407 334.306 937.741 326.706L930.371 330.61C933.121 333.499 936.969 334.649 940.444 334.393C943.932 334.189 947.445 332.506 949.597 329.534C951.736 326.532 951.94 322.915 951.068 320.017C950.161 317.106 948.009 314.603 945.354 313.913Z" fill="#272525"/>
<path d="M780.654 84.6239C782.961 89.092 781.513 94.2239 778.71 96.4406C777.305 97.5294 775.504 98.0413 773.778 98.05C772.03 98.0326 770.429 97.3863 769.366 96.5057C767.752 95.1696 765.358 95.3908 764.022 97.0045C762.712 98.5836 762.898 100.909 764.416 102.262L764.803 102.605C766.885 104.457 766.919 108.856 765.219 110.587C764.429 111.476 763.054 112.201 761.506 112.309C759.966 112.47 758.447 112.036 757.398 111.268L756.764 110.804C755.029 109.533 752.587 109.91 751.316 111.65C750.439 112.847 750.348 114.387 750.947 115.636C751.854 117.523 752.209 119.71 752.222 121.809C752.231 123.944 751.576 125.904 750.418 127.587C749.359 129.11 747.268 130.268 744.952 130.576C742.666 130.845 739.994 130.368 738.124 128.203C738.77 131.006 741.659 133.231 744.757 133.773C747.854 134.407 751.415 133.786 754.253 131.44C756.994 129.266 758.538 125.913 759.181 122.655C759.84 119.341 759.449 115.966 758.413 112.764L751.966 117.137C754.691 119.87 758.465 120.994 762.005 120.851C765.536 120.673 769.24 119.228 771.787 116.205C774.342 113.194 775.192 109.329 774.771 105.832C774.363 102.323 772.568 98.8742 769.535 96.6271L764.972 102.726C767.917 104.683 771.414 105.117 774.511 104.548C777.63 104.019 780.562 102.353 782.436 99.7852C786.206 94.6533 784.835 87.5824 780.654 84.6239Z" fill="#272525"/>
<path d="M529.462 127.527C529.748 131.249 529.201 134.793 527.64 137.543C526.191 140.341 523.779 142.02 521.202 142.684C518.582 143.235 516.283 142.762 515.051 141.196C513.585 139.673 513.138 137.244 513.788 136.09C514.96 134.016 514.227 131.383 512.153 130.216C510.184 129.101 507.707 129.709 506.462 131.552L506.292 131.804C504.804 134.021 502.644 135.886 500.224 137.192C497.794 138.532 495.053 139.079 492.341 138.914C487.149 138.428 481.119 133.96 480.238 126.789C478.746 130.164 479.388 134.437 481.353 137.899C483.366 141.339 486.706 144.276 490.979 145.469C495.144 146.74 499.664 146.167 503.586 144.61C507.533 143.018 510.96 140.259 513.437 136.702L505.941 132.416C504.679 135.101 504.618 138.116 505.308 140.667C506.037 143.23 507.442 145.469 509.381 147.217C513.441 150.865 519.532 151.177 523.614 149.069C527.891 147.204 530.945 143.083 531.713 138.931C532.477 134.763 531.6 130.641 529.462 127.527Z" fill="#272525"/>
<path d="M528.082 220.876C525.263 223.895 521.493 225.232 518.044 225.062C516.335 224.997 514.704 224.611 513.402 223.813C512.635 223.383 512.613 223.167 512.066 222.585C511.646 222.043 511.233 221.371 510.886 220.646C510.201 219.197 509.706 217.553 509.49 216.117C509.385 215.415 509.381 214.694 509.503 214.36C509.537 213.81 509.798 214.23 509.359 214.465C508.479 215.042 509.672 214.564 511.112 215.38C511.767 215.623 510.964 215.38 510.648 214.916C510.253 214.491 510.188 214.057 510.179 213.97C510.179 213.814 510.127 214.386 509.897 214.903C508.843 219.41 500.783 220.542 495.565 216.959C492.97 215.202 490.997 212.578 490.671 209.138C490.272 205.741 491.318 201.867 494.341 199.03C490.255 200.18 487.192 204.357 486.416 208.942C486.073 211.254 486.251 213.771 487.14 216.122C487.973 218.473 489.513 220.499 491.287 222.208C494.884 225.631 499.898 227.357 505.043 227.162C507.607 227.014 510.275 226.307 512.734 224.724C513.94 223.947 515.099 222.85 515.979 221.661C516.834 220.507 517.476 219.349 517.996 218.017C518.469 216.664 518.938 215.228 518.756 213.063C518.638 211.975 518.218 210.569 517.198 209.35C516.209 208.127 514.474 207.437 514.17 207.389C512.969 206.977 511.741 206.569 510.106 206.448C508.609 206.283 506.349 206.491 504.345 207.992C502.484 209.615 501.699 211.905 501.677 213.393C501.521 215.05 501.764 216.365 502.063 217.623C502.67 220.121 503.755 222.238 505.169 224.216C505.876 225.201 506.687 226.142 507.681 227.023C508.561 227.839 510.192 228.862 511.338 229.084C513.771 229.808 516.27 229.786 518.547 229.27C523.068 228.177 526.928 224.923 528.082 220.876Z" fill="#272525"/>
<path d="M487.171 273.344C486.069 276.242 484.655 278.979 482.789 281.17C480.963 283.4 478.625 284.935 476.143 285.59C473.862 286.31 470.721 285.877 470.305 284.771C468.986 283.283 467.771 280.411 467.12 277.977C466.617 276.099 464.687 274.984 462.808 275.483C461.351 275.873 460.353 277.123 460.214 278.537L460.154 279.179C459.945 281.339 459.065 284.046 457.69 285.256C456.379 286.545 454.518 287.087 452.124 287.044C450.055 286.97 448.094 286.011 446.988 284.584C445.864 283.183 445.335 281.265 445.595 278.932L445.626 278.658C445.886 276.337 444.216 274.242 441.891 273.982C439.726 273.739 437.752 275.197 437.288 277.279C436.689 279.99 433.583 282.515 429.991 283.196C426.525 283.886 422.582 282.58 419.29 279.899C415.98 277.201 413.412 273.422 411.62 269.058C409.785 264.707 408.627 259.901 407.312 255.103C407 260.061 406.965 265.076 407.95 270.16C408.909 275.197 411.091 280.411 414.973 284.476C416.908 286.506 419.255 288.276 421.988 289.508C424.669 290.735 427.983 291.256 431.046 290.909C434.126 290.562 437.132 289.503 439.778 287.625C442.381 285.721 444.563 282.849 445.5 279.448L437.193 277.795C436.603 281.721 437.301 286.579 440.338 290.098C443.287 293.607 447.682 295.42 451.955 295.459C455.855 295.616 460.687 294.115 463.589 290.544C465.042 288.84 465.984 286.883 466.552 284.961C467.103 282.966 467.398 281.248 467.298 278.997L460.331 280.203C461.759 283.491 463.142 286.389 466.222 289.226C467.064 289.898 468.01 290.575 469.363 290.909C470.556 291.199 471.389 291.212 472.404 291.186C474.339 291.113 476.169 290.605 477.796 289.829C481.063 288.276 483.522 285.53 484.984 282.593C486.446 279.613 487.054 276.446 487.171 273.344Z" fill="#272525"/>
<path d="M476.807 363.254C475.258 365.271 473.684 367.11 471.988 368.546C470.278 369.978 468.482 370.923 466.756 371.214C465.311 371.47 463.676 370.954 462.47 370.225C461.216 369.392 460.913 368.455 460.982 367.947L453.325 370.685C453.169 370.563 453.325 370.611 453.113 371.188C452.896 371.778 452.61 372.168 452.002 372.58C450.671 373.522 447.816 374.116 444.671 374.467C441.678 374.992 438.962 375.266 436.425 374.78C433.952 374.216 431.245 372.741 430.074 369.574C428.955 372.962 431.245 376.957 434.473 379.014C437.817 381.174 441.7 381.577 445.036 381.781C448.194 381.729 452.007 382.219 456.301 379.929C458.479 378.779 460.388 376.589 461.26 374.172C462.162 371.795 462.253 368.26 460.127 365.544L460.041 365.431C458.596 363.588 455.928 363.267 454.089 364.711C452.965 365.592 452.406 366.954 452.471 368.277C452.584 370.381 453.443 372.485 454.727 373.964C456.006 375.465 457.551 376.476 459.13 377.144C462.27 378.502 465.845 378.458 468.951 377.001C471.779 375.582 473.792 373.227 474.976 370.806C476.195 368.368 476.751 365.796 476.807 363.254Z" fill="#272525"/>
<path d="M817.661 169.436C819.613 171.059 820.329 173.206 820.381 175.128C820.468 177.075 819.661 178.724 818.689 179.435C817.739 180.164 816.377 180.437 815.041 180.246C813.692 180.06 812.664 179.357 812.295 178.711C811.124 176.642 808.499 175.917 806.43 177.088C804.361 178.26 803.636 180.884 804.808 182.953L804.938 183.17L805.241 183.639C806.022 184.836 806.313 186.597 806.022 188.393C805.701 190.176 804.847 191.855 803.532 192.922C800.925 195.121 794.939 195.373 790.83 191.065C790.978 194.154 793.273 197.073 796.262 198.705C799.251 200.301 803.259 200.887 806.968 199.182C810.673 197.507 813.236 194.059 814.217 190.345C815.245 186.654 814.807 182.294 812.347 178.776L805.293 183.699C807.714 186.992 811.562 188.319 814.937 188.181C818.325 188.068 821.895 186.441 823.834 183.305C825.777 180.177 825.439 176.563 824.142 173.987C822.845 171.38 820.26 169.401 817.661 169.436Z" fill="#272525"/>
<path d="M917.951 224.403C917.478 229.956 913.579 235.018 909.084 235.76C907.037 236.115 904.864 235.356 903.376 234.077C901.84 232.788 901.319 231.079 901.714 230.09V230.073L893.303 231.63C895.199 234.346 894.435 239.842 890.839 242.466C887.316 245.186 880.814 244.926 876.996 240.783C879.621 245.746 886.47 248.726 892.843 246.314C896.005 245.078 898.612 242.544 900.2 239.447C901.788 236.358 902.46 232.537 901.454 228.672L901.432 228.598C900.834 226.307 898.495 224.937 896.205 225.531C894.092 226.082 892.761 228.116 893.038 230.229L893.047 230.298C893.528 234.996 896.856 238.289 900.122 239.712C903.436 241.204 907.284 241.378 910.525 239.851C913.622 238.371 915.752 235.725 916.906 232.962C918.081 230.177 918.407 227.179 917.951 224.403Z" fill="#272525"/>
<path d="M633.674 154.197C627.501 149.373 623.618 142.97 622.325 136.424C621.792 133.144 621.675 129.808 622.395 126.607C623.028 123.414 624.221 120.356 625.956 117.705L626.008 117.623C627.318 115.623 626.759 112.938 624.755 111.628C622.855 110.387 620.334 110.838 618.963 112.595C617.64 114.3 615.146 115.385 612.465 115.476C609.758 115.623 607.116 114.595 605.351 112.799C601.82 109.129 601.976 100.366 608.227 95.881C604.301 96.3278 600.809 99.5293 599.082 103.446C597.395 107.355 597.182 112.47 599.906 116.742C602.561 121.089 607.515 123.306 612.231 123.64C616.977 123.97 622.243 122.239 625.683 118.066L618.694 112.96C616.248 116.725 614.738 121.015 614.248 125.392C613.849 129.761 614.196 134.246 615.805 138.315C618.812 146.492 625.883 152.7 633.674 154.197Z" fill="#272525"/>
<path d="M811.406 670.957C805.398 686.218 785.347 689.679 774.572 677.316L727.917 623.79C712 610.823 707.085 588.617 716.039 570.141L838.93 294.943C843.715 284.233 858.269 282.649 865.245 292.08L913.514 352.821C924.979 367.253 927.755 386.753 920.775 403.81L811.406 670.957Z" fill="#2B3126"/>
<path d="M867.427 1214.89C822.55 1070.38 816.203 916.622 790.171 761.881C829.304 764.549 869.114 756.589 908.95 737.51C944.977 812.007 981 886.507 1017.03 961.004C1039.78 1008.05 1062.54 1055.12 1082.6 1103.37C1101.23 1148.18 1117.63 1194.48 1123.1 1242.7C1126 1268.27 1125.21 1296.11 1110.2 1317.01C1095.39 1337.63 1068.28 1341.73 1043.36 1346.61C959.765 1362.96 872.745 1232.03 867.427 1214.89Z" fill="#FFB5A1"/>
<path d="M796.852 767.559C787.347 761.907 784.436 749.032 780.289 738.777C773.288 721.464 774.177 710.623 775.088 692.499C776.693 660.567 778.298 628.635 779.903 596.703L736.454 539.619C736.454 539.619 711.12 523.608 711.801 523.291C706.37 518.797 702.132 512.385 701.828 505.345C701.524 498.3 705.992 490.882 712.851 489.255C718.373 487.945 724.021 490.383 729.149 492.821C741.121 498.504 752.951 504.477 764.633 510.733C764.633 510.733 822.867 571.642 824.415 568.597L791.282 502.616L759.588 475.131C759.588 475.131 757.059 472.146 755.884 472.411C747.555 473.187 738.692 473.877 731.604 468.585C728.381 466.177 726.134 462.455 726.095 458.434C726.021 451.111 732.072 447.658 737.807 445.428C752.687 439.646 769.297 438.392 784.874 441.884L837.182 482.21L849.78 502.013L860.698 520.276C860.698 520.276 857.718 470.541 856.508 468.35C838.201 453.861 819.895 439.372 802.435 423.565C793.247 415.631 788.948 402.447 791.681 390.622C792.47 387.199 793.928 383.742 796.717 381.608C800.136 378.992 804.968 378.892 809.042 380.276C813.115 381.66 816.616 384.319 820.03 386.935C835.529 398.804 851.029 410.677 865.197 421.279C862.1 403.185 859.015 384.536 863.05 366.633C863.809 363.254 864.876 359.827 867.127 357.193C869.374 354.56 873.062 352.899 876.372 353.91C881.07 355.345 882.809 360.967 883.833 365.774C889.429 391.971 895.025 418.168 899.398 444.326C904.838 444.847 909.349 449.085 911.765 453.987C914.182 458.889 914.876 464.433 915.6 469.851C918.94 494.895 923.547 519.764 931 545.437C932.705 551.315 932.913 557.518 931.521 563.478C917.596 623.052 911.366 684.452 913.7 746.377C898.573 763.369 877.855 775.294 855.567 779.849C835.069 784.044 811.249 776.123 796.852 767.559Z" fill="#FFB5A1"/>
<path d="M729.179 535.372C724.689 529.677 721.366 523.799 719.184 517.626C717.119 511.496 715.957 504.885 716.92 499.272C717.883 493.567 721.089 490.049 727.114 489.689C732.923 489.207 739.304 492.53 745.898 495.489C743.716 492.574 741.269 489.932 738.302 487.576C735.33 485.325 731.621 483.412 727.444 482.93C723.344 482.31 718.546 483.264 714.768 486.236C710.981 489.22 709.081 493.697 708.378 497.771C707.033 506.147 709.445 513.834 713.063 520.458C716.807 527.056 722.464 532.527 729.179 535.372Z" fill="black"/>
<path d="M816.477 562.055C817.969 559.544 818.459 557.054 818.659 554.594C818.802 552.143 818.52 549.735 817.869 547.428C817.223 545.124 816.204 542.92 814.798 540.908C813.345 538.917 811.614 537.051 809.02 535.698C808.291 538.526 808.278 540.916 808.386 543.228C808.543 545.523 808.924 547.684 809.527 549.788C810.126 551.891 810.933 553.935 812.004 555.969C813.128 557.995 814.386 560.025 816.477 562.055Z" fill="black"/>
<path d="M848.014 498.126C848.426 501.827 849.393 504.976 850.404 508.056C851.463 511.106 852.673 514.003 854.031 516.836C855.384 519.669 856.894 522.423 858.616 525.152C860.386 527.868 862.251 530.583 864.898 533.212C865.743 529.572 865.544 526.098 864.993 522.723C864.39 519.361 863.323 516.12 861.848 513.075C860.377 510.03 858.512 507.171 856.261 504.603C853.961 502.07 851.376 499.74 848.014 498.126Z" fill="black"/>
<path d="M866.238 420.593C868.403 424.471 871.114 427.621 873.947 430.605C876.814 433.546 879.885 436.21 883.13 438.648C886.336 441.086 889.902 443.281 893.281 445.168C896.691 447.098 899.888 448.825 903.237 451.714C903.206 447.159 900.434 443.021 897.584 439.871C894.622 436.696 891.585 434.162 888.327 431.703C885.078 429.278 881.651 427.083 878.02 425.165C874.354 423.287 870.567 421.578 866.238 420.593Z" fill="black"/>
<path d="M796.986 377.712C793.832 377.894 791.139 379.56 789.048 381.707C786.978 383.898 785.547 386.67 784.874 389.603C784.198 392.535 784.289 395.658 785.209 398.526C786.163 401.372 787.876 404.039 790.648 405.562C791.178 402.478 791.533 400.122 791.998 397.871L793.329 391.524C793.798 389.468 794.279 387.416 794.861 385.221C795.42 382.987 796.123 380.71 796.986 377.712Z" fill="black"/>
<path d="M769.54 439.737C762.048 438.318 754.305 438.921 746.917 440.201C743.16 440.817 739.681 441.576 735.721 442.756C731.942 444.036 727.474 446.079 724.628 450.751C723.288 452.998 722.602 455.852 722.78 458.425C722.95 461.023 723.761 463.418 725.001 465.483C727.513 469.652 731.743 472.45 735.833 473.482C739.946 474.684 744.058 474.606 747.854 474.154C751.671 473.612 755.242 472.797 758.946 471.938C751.572 469.986 743.837 470.016 738.185 467.131C735.378 465.665 733.205 463.899 732.194 461.514C731.088 459.123 731.04 456.82 732.107 455.141C733.07 453.336 735.577 451.723 738.597 450.426C741.573 449.09 745.264 448.053 748.622 446.73C755.489 444.279 762.278 441.914 769.54 439.737Z" fill="black"/>
<path d="M775.196 678.123C773.101 685.103 772.008 692.2 771.453 699.344C770.906 706.489 770.876 713.695 771.592 720.896C772.294 728.088 773.726 735.311 776.398 742.243C777.782 745.696 779.448 749.067 781.682 752.121C783.842 755.179 786.822 757.812 790.102 759.348C785.855 753.418 784.28 746.976 782.896 740.343C781.617 733.697 780.936 726.882 780.22 720.032L778.194 699.271C777.478 692.291 776.689 685.255 775.196 678.123Z" fill="black"/>
<path d="M1025.98 972.981C1033.11 999.395 1042.07 1025.36 1052.2 1050.77C1062.17 1076.24 1072.89 1101.28 1081.65 1126.92C1090.65 1152.48 1097.59 1178.7 1103.08 1205.32C1108.48 1231.95 1112.74 1258.88 1116.91 1285.93C1116.09 1258.59 1114.07 1231.22 1109.73 1204.09C1108.57 1197.33 1107.4 1190.55 1106.11 1183.8L1101.62 1163.66C1099.83 1157.02 1098.05 1150.37 1096.14 1143.75C1094.03 1137.2 1092.15 1130.57 1089.84 1124.09C1080.77 1098.08 1069.63 1073.01 1058.41 1048.15C1047.27 1023.26 1036.3 998.337 1025.98 972.981Z" fill="black"/>
<path d="M278.07 481.807L295.119 446.17L303.291 485.308L340.741 490.652L307.985 508.659L318.539 537.268L290.03 509.639L255.157 532.366L271.841 502.855L245.305 480.692L278.07 481.807Z" fill="#FF9327"/>
<path d="M1076.89 238.853L1090.35 214.681L1092.59 243.03L1115.89 249.329L1093.8 259.931L1098.34 280.957L1082.37 259.424L1058.59 273.24L1071.36 253.389L1056.23 235.873L1076.89 238.853Z" fill="#FF9327"/>
<path d="M311.837 265.597C305.848 265.597 300.992 260.741 300.992 254.752C300.992 248.762 305.848 243.907 311.837 243.907C317.827 243.907 322.682 248.762 322.682 254.752C322.682 260.741 317.827 265.597 311.837 265.597Z" fill="#FF9327"/>
<path d="M1378.99 634.326C1373 634.326 1368.14 629.471 1368.14 623.481C1368.14 617.492 1373 612.636 1378.99 612.636C1384.97 612.636 1389.83 617.492 1389.83 623.481C1389.83 629.471 1384.97 634.326 1378.99 634.326Z" fill="#FF9327"/>
<path d="M1057.97 66.0485C1051.98 66.0485 1047.13 61.1931 1047.13 55.2036C1047.13 49.214 1051.98 44.3586 1057.97 44.3586C1063.96 44.3586 1068.82 49.214 1068.82 55.2036C1068.82 61.1931 1063.96 66.0485 1057.97 66.0485Z" fill="#FF9327"/>
<path d="M1352.96 408.751C1349.36 408.751 1346.45 405.837 1346.45 402.244C1346.45 398.65 1349.36 395.737 1352.96 395.737C1356.55 395.737 1359.46 398.65 1359.46 402.244C1359.46 405.837 1356.55 408.751 1352.96 408.751Z" fill="#FF9327"/>
<path d="M1188.11 230.893C1184.52 230.893 1181.61 227.979 1181.61 224.386C1181.61 220.792 1184.52 217.879 1188.11 217.879C1191.71 217.879 1194.62 220.792 1194.62 224.386C1194.62 227.979 1191.71 230.893 1188.11 230.893Z" fill="#FF9327"/>
<path d="M346.541 87.7385C342.948 87.7385 340.034 84.8253 340.034 81.2315C340.034 77.6378 342.948 74.7245 346.541 74.7245C350.135 74.7245 353.048 77.6378 353.048 81.2315C353.048 84.8253 350.135 87.7385 346.541 87.7385Z" fill="#FF9327"/>
<path d="M1254.06 551.597C1248.67 551.597 1244.3 547.227 1244.3 541.836C1244.3 536.445 1248.67 532.076 1254.06 532.076C1259.45 532.076 1263.82 536.445 1263.82 541.836C1263.82 547.227 1259.45 551.597 1254.06 551.597Z" stroke="#FF9327" stroke-miterlimit="10"/>
<path d="M173.897 326.021C168.507 326.021 164.137 321.651 164.137 316.26C164.137 310.869 168.507 306.5 173.897 306.5C179.288 306.5 183.658 310.869 183.658 316.26C183.658 321.651 179.288 326.021 173.897 326.021Z" stroke="#FF9327" stroke-miterlimit="10"/>
<path d="M238.967 833.567C233.577 833.567 229.207 829.197 229.207 823.806C229.207 818.415 233.577 814.046 238.967 814.046C244.358 814.046 248.728 818.415 248.728 823.806C248.728 829.197 244.358 833.567 238.967 833.567Z" stroke="#FF9327" stroke-miterlimit="10"/>
</svg>
