<svg width="1920" height="446" viewBox="0 0 1920 446" fill="none" xmlns="http://www.w3.org/2000/svg">
<mask id="mask0_56_1366" style="mask-type:alpha" maskUnits="userSpaceOnUse" x="0" y="0" width="1920" height="446">
<rect width="1920" height="446" fill="#F0F8FF"/>
</mask>
<g mask="url(#mask0_56_1366)">
<path d="M-168.029 366.568C-120.844 320.073 16.0079 292.062 148.778 301.622C243.299 308.45 333.213 332.02 427.607 330.638C542.509 329.026 619.713 292.983 697.856 266.957C795.87 234.331 890.875 222.738 1025.64 243.455C1125.57 258.78 1207.32 288.381 1315.39 292.598C1514.13 300.366 1614.47 224.267 1680.38 166.476C1746.75 108.279 1812.59 46.5098 1976 21.6291C2109.91 1.20382 2242.53 8.98122 2380.13 30.4833C2446.31 40.7955 2511.26 48.5233 2565.59 68.787" stroke="#0D8EFF" stroke-miterlimit="10"/>
<path d="M2571.64 71.8945C2515.98 51.8337 2449.94 43.8104 2382.89 33.4646C2333.58 25.8275 2284.87 19.9894 2236.51 16.4487C2147.93 9.93211 2060.36 11.4901 1972.78 24.8899C1945.73 29.1 1921.07 34.2473 1898.8 40.2474C1785.43 70.9322 1731.41 123.088 1674.21 172.161C1606.07 230.712 1499.16 305.63 1298.46 297.026C1190.19 292.463 1107.99 263.183 1008.52 247.368C919.783 233.402 848.16 233.032 781.205 243.16C747.284 248.292 714.8 256.185 681.572 266.25C602.622 290.299 523.968 323.918 409.305 325.032C380.861 325.298 352.937 323.469 325.052 320.627C260.063 313.913 196.168 301.657 130.198 297.528C-2.39381 289.075 -137.724 317.651 -184.256 364.341" stroke="#158CF9" stroke-miterlimit="10"/>
<path d="M2577.26 74.9006C2520.27 55.0427 2453.36 46.7324 2385.2 36.3444C2335.24 28.6821 2285.65 22.7259 2236.63 19.2444C2146.72 12.7618 2057.39 14.3369 1969.36 27.9733C1941.86 32.251 1917.2 37.4828 1894.7 43.7278C1780.2 75.1307 1727.03 128.249 1668.26 177.855C1597.88 237.251 1484.19 310.81 1281.55 301.37C1173.5 296.478 1090.63 267.425 991.399 251.281C903.552 237.095 831.964 235.796 765.054 244.742C731.158 249.198 698.48 256.407 665.065 265.618C585.529 287.7 505.425 318.895 390.778 319.587C362.336 319.768 334.192 317.931 306.307 315.088C241.089 308.619 176.948 297.031 111.179 293.417C-21.2416 286.239 -155.048 315.297 -200.925 362.181" stroke="#1D8BF2" stroke-miterlimit="10"/>
<path d="M2582.87 77.9068C2524.55 58.2517 2456.77 49.7388 2387.51 39.2244C2336.89 31.5368 2286.64 25.5554 2236.74 22.0402C2145.51 15.5071 2054.64 17.1922 1965.71 31.1328C1937.99 35.4866 1912.88 40.8705 1890.15 47.1916C1774.53 79.3125 1722.2 133.478 1661.88 183.447C1589.04 243.68 1469.02 315.728 1264.41 305.705C1156.38 300.475 1073.06 271.659 974.06 255.101C887.106 240.611 815.763 238.645 748.902 246.323C715.029 250.188 682.16 256.629 648.777 264.996C568.435 285.101 487.104 313.796 372.253 314.057C343.818 314.07 315.674 312.232 287.562 309.55C222.117 303.242 157.727 292.405 92.156 289.391C-39.6463 283.336 -171.931 312.96 -217.375 360.029" stroke="#2589EC" stroke-miterlimit="10"/>
<path d="M2588.49 80.8283C2528.84 61.3762 2459.96 52.5679 2390.05 42.0281C2338.77 34.3153 2287.86 28.3087 2237.08 24.7599C2144.53 18.2607 2052.1 20.0558 1962.51 34.1401C1934.57 38.5699 1909.01 44.0215 1886.06 50.5031C1769.09 83.2493 1717.82 138.471 1655.93 188.972C1580.86 249.965 1454.28 320.662 1247.71 309.973C1139.7 304.321 1055.71 275.817 957.161 258.938C870.88 244.136 799.787 241.417 732.974 247.829C699.124 251.103 666.284 256.783 632.492 264.288C551.348 282.333 468.783 308.697 353.952 308.451C325.52 308.379 297.156 306.534 269.041 303.936C203.366 297.872 138.73 287.703 73.3563 285.289C-58.0477 280.349 -189.031 310.529 -233.601 357.802" stroke="#2D88E6" stroke-miterlimit="10"/>
<path d="M2594.33 83.8429C2533.35 64.5937 2463.6 55.4983 2392.58 45.0009C2340.64 37.2629 2288.85 31.2225 2237.41 27.6485C2143.54 21.0988 2049.34 22.9956 1959.08 37.308C1930.7 41.8055 1905.13 47.4259 1881.74 54.0596C1763.63 87.5239 1713.21 143.708 1649.77 194.657C1572.24 256.487 1439.31 325.842 1230.57 314.308C1122.57 308.403 1038.13 280.136 939.819 262.843C854.428 247.82 783.587 244.266 716.602 249.402C682.558 251.992 649.744 256.997 615.765 263.649C534.034 279.725 450.019 303.666 335.207 302.913C306.779 302.757 278.414 300.911 250.296 298.398C184.395 292.495 119.733 283.001 54.1166 281.169C-77.1126 277.421 -206.355 308.175 -250.491 355.633" stroke="#3586DF" stroke-miterlimit="10"/>
<path d="M2599.95 86.849C2537.63 67.8027 2467.01 58.5047 2394.9 47.8808C2342.29 40.1175 2289.84 34.052 2237.52 30.4442C2142.33 23.9285 2046.59 25.8509 1955.44 40.383C1926.83 44.9565 1900.82 50.6446 1877.2 57.4388C1757.75 91.6128 1708.39 148.852 1643.16 200.157C1563.4 262.832 1423.69 330.828 1213.22 318.551C1105.23 312.307 1020.34 284.277 922.263 266.57C837.762 251.328 766.954 246.929 700.237 250.807C666.216 252.805 633.211 257.041 599.044 262.84C516.287 276.932 431.262 298.465 316.466 297.291C287.823 296.957 259.679 295.119 231.338 292.682C165.207 287.024 100.299 278.198 34.8801 276.966C-95.9541 274.416 -223.672 305.652 -267.154 353.304" stroke="#3D85D9" stroke-miterlimit="10"/>
<path d="M2605.56 89.8552C2541.92 71.0117 2470.21 61.4183 2397.43 50.7691C2344.17 42.9806 2291.06 36.8898 2237.86 33.2484C2141.34 26.6822 2044.06 28.7145 1952.23 43.5593C1923.4 48.2089 1896.95 54.049 1873.1 60.9193C1752.51 95.8114 1704 154.014 1637.21 205.85C1555 269.277 1408.95 335.931 1196.3 322.979C1088.54 316.406 1002.97 288.689 905.137 270.568C821.306 255.097 750.97 249.871 684.083 252.473C650.087 253.795 616.887 257.348 582.533 262.294C498.97 274.409 412.718 293.442 297.938 291.845C269.299 291.427 240.935 289.581 212.59 287.229C146.232 281.731 81.0751 273.657 15.8539 273.024C-114.582 271.59 -240.998 303.383 -283.827 351.229" stroke="#4583D3" stroke-miterlimit="10"/>
<path d="M2611.18 92.7768C2546.2 74.2208 2473.62 64.2558 2399.75 53.5646C2345.83 45.7508 2291.84 39.6263 2237.97 35.9597C2139.91 29.419 2041.08 31.5614 1948.59 46.5498C1919.32 51.267 1892.86 57.1917 1868.56 64.2985C1746.63 99.8158 1699.18 159.074 1630.83 211.358C1546.38 275.63 1393.77 340.934 1179.16 327.146C1071.42 320.235 985.405 292.754 887.801 274.304C804.864 258.529 734.557 252.542 667.938 253.886C633.744 254.609 600.574 257.4 566.252 261.502C481.886 271.556 394.4 288.259 279.64 286.155C251.004 285.652 222.64 283.806 194.072 281.53C127.484 276.277 62.0812 268.87 -2.93926 268.753C-132.98 268.518 -257.872 300.792 -300.05 348.917" stroke="#4D81CC" stroke-miterlimit="10"/>
<path d="M2616.8 95.783C2550.49 77.4298 2477.04 67.2622 2402.07 56.4445C2347.48 48.6054 2292.83 42.4557 2238.08 38.8399C2138.7 32.2487 2038.32 34.5011 1944.94 49.7093C1915.44 54.5026 1888.54 60.5793 1864.24 67.7706C1741.18 104.006 1694.57 164.227 1624.66 217.044C1537.75 282.152 1378.8 346.114 1162.24 331.574C1054.51 324.325 967.823 297.157 870.679 278.217C788.632 262.222 718.361 255.306 651.786 255.468C617.619 255.515 584.254 257.622 549.744 260.871C464.352 268.941 375.856 283.236 261.112 280.71C232.483 280.038 203.895 278.268 175.324 276.076C108.51 270.984 42.8577 264.329 -21.9653 264.811C-151.831 265.767 -274.982 298.615 -316.502 346.85" stroke="#5580C6" stroke-miterlimit="10"/>
<path d="M2622.63 98.7975C2555 80.6473 2480.45 70.1842 2404.6 59.4173C2349.35 51.553 2294.04 45.2935 2238.63 41.7369C2137.93 35.1798 2036.01 37.4577 1941.95 52.9785C1912.23 57.8478 1884.88 63.9922 1860.36 71.344C1735.95 108.289 1690.4 169.566 1618.93 222.746C1529.79 288.615 1364.28 351.31 1145.54 336.011C1037.82 328.424 950.684 301.492 853.774 282.223C772.396 266 702.598 258.256 636.072 257.151C601.927 256.606 568.371 257.946 533.673 260.341C447.478 266.35 357.749 278.314 243.024 275.281C214.398 274.525 185.814 272.671 157.24 270.563C90.1957 265.716 24.5209 259.652 -40.3279 260.81C-169.796 262.881 -291.645 296.286 -332.511 344.715" stroke="#5D7EC0" stroke-miterlimit="10"/>
<path d="M2628.25 101.804C2559.28 83.8563 2483.87 73.1062 2407.13 62.3056C2351 54.4076 2295.04 48.1229 2238.97 44.5411C2136.94 37.9334 2033.25 40.3974 1938.53 56.0619C1908.36 61.0833 1881.01 67.3121 1856.03 74.816C1730.5 112.479 1685.8 174.719 1612.77 228.431C1520.95 294.959 1348.87 356.389 1128.19 340.253C1020.48 332.413 932.889 305.718 836.217 285.95C755.73 269.508 685.964 260.919 619.487 258.547C585.148 257.318 551.618 257.982 516.732 259.524C429.514 263.464 338.775 273.021 224.066 269.566C195.446 268.64 166.639 266.862 138.061 264.839C70.7906 260.152 4.86655 254.84 -59.7816 256.513C-188.854 259.783 -309.179 293.67 -349.395 342.378" stroke="#657DB9" stroke-miterlimit="10"/>
<path d="M2633.87 104.725C2563.57 86.9809 2487.28 76.0282 2409.45 65.1011C2352.66 57.1779 2296.03 50.8679 2239.08 47.2524C2135.74 40.6787 2030.5 43.1683 1934.89 59.0525C1904.5 64.1499 1876.7 70.4464 1851.5 78.1108C1724.84 116.408 1680.98 179.694 1606.17 233.846C1512.33 301.312 1333.69 361.476 1111.05 344.504C1003.58 336.335 915.314 309.952 818.879 289.77C739.281 273.108 669.767 263.683 603.118 260.036C568.805 258.131 534.864 258.018 500.007 258.8C411.766 260.671 320.014 267.905 205.325 263.943C176.708 262.933 147.901 261.155 119.1 259.208C51.5993 254.766 -14.5707 250.122 -79.0213 252.394C-207.699 256.864 -326.502 291.316 -366.281 340.125" stroke="#6D7BB3" stroke-miterlimit="10"/>
<path d="M2639.48 107.731C2567.86 90.1899 2490.48 78.9418 2411.76 67.9809C2354.32 60.0325 2297.03 53.6973 2239.2 50.0481C2134.53 43.424 2027.74 46.0236 1931.46 62.2204C1900.84 67.3939 1872.6 73.8424 1847.18 81.5829C1719.17 120.589 1676.37 184.932 1600 239.531C1503.93 307.842 1318.73 366.655 1094.13 348.932C986.668 340.425 897.732 314.355 801.753 293.768C722.826 276.878 653.564 266.617 587.184 261.71C552.893 259.215 518.761 258.333 483.937 258.27C394.673 258.071 301.907 262.983 187.234 258.599C158.4 257.496 129.816 255.642 100.789 253.856C33.0618 249.574 -33.3574 245.682 -97.6105 248.554C-226.11 254.13 -343.392 289.148 -382.297 338.159" stroke="#757AAD" stroke-miterlimit="10"/>
<path d="M2645.1 110.738C2572.14 93.399 2493.89 81.8637 2414.08 70.8608C2355.97 62.8027 2297.8 56.5183 2239.31 52.8439C2133.32 46.1692 2024.77 48.8704 1927.82 65.2954C1896.98 70.5449 1868.29 77.0611 1842.64 84.9621C1713.5 124.687 1671.55 189.992 1593.61 245.039C1495.09 314.187 1303.55 371.658 1076.99 353.183C969.543 344.423 880.16 318.505 784.417 297.504C706.38 280.394 637.154 269.204 570.819 263.115C536.554 259.944 502.231 258.293 467.216 257.462C376.929 255.194 283.15 257.783 168.496 252.892C139.669 251.62 110.861 249.842 81.8337 248.056C13.8803 243.935 -52.7879 240.794 -116.84 244.181C-244.945 250.956 -360.702 286.456 -399.177 335.738" stroke="#7E78A6" stroke-miterlimit="10"/>
<path d="M2650.94 113.752C2576.64 96.7009 2497.3 84.8702 2416.83 73.842C2358.07 65.7586 2299.23 59.449 2239.86 55.7409C2132.55 49.1002 2022.45 51.9114 1924.61 68.4716C1893.33 73.7888 1864.64 80.474 1838.54 88.527C1708.04 128.961 1667.16 195.237 1587.67 250.733C1486.9 320.641 1288.8 376.846 1060.3 357.536C952.857 348.437 863.021 322.84 767.515 301.425C690.148 284.087 621.394 272.069 555.107 264.713C520.645 260.942 486.351 258.532 451.148 256.847C359.841 252.426 265.045 252.777 150.191 247.37C121.367 246.015 92.5597 244.236 63.5289 242.534C-4.65426 238.659 -71.3451 236.109 -135.423 240.172C-263.133 248.146 -377.366 284.127 -415.187 333.603" stroke="#8676A0" stroke-miterlimit="10"/>
<path d="M2656.55 116.758C2580.93 99.9099 2500.72 87.7921 2419.14 76.7219C2359.72 68.6133 2300.23 62.2784 2239.97 58.5366C2131.34 51.8454 2019.69 54.7667 1921.18 71.555C1889.68 76.9483 1860.54 83.701 1834.44 91.923C1702.82 132.991 1662.77 200.399 1581.72 256.342C1478.5 327.087 1273.83 382.026 1043.38 361.879C935.949 352.527 845.663 327.167 750.396 305.254C673.919 287.696 605.198 274.833 538.96 266.21C504.523 261.764 470.038 258.585 434.644 256.132C342.317 249.556 246.508 247.585 131.67 241.756C102.85 240.316 73.8252 238.445 44.7878 236.912C-23.6219 233.196 -90.5619 231.398 -154.443 236.061C-281.974 245.142 -394.689 281.773 -431.853 331.359" stroke="#8E7599" stroke-miterlimit="10"/>
<path d="M2662.17 119.68C2585.22 103.034 2504.14 90.6296 2421.46 79.5173C2361.38 71.3834 2301 65.0149 2240.09 61.2479C2130.13 54.5907 2016.72 57.5291 1917.54 74.63C1885.81 80.0993 1856.23 87.0042 1829.9 95.3022C1696.93 137.08 1657.95 205.459 1575.12 261.842C1469.66 333.431 1258.43 387.104 1025.8 366.114C918.606 356.432 827.427 331.376 732.617 309.057C656.81 291.271 588.344 277.488 522.151 267.682C487.74 262.56 452.841 258.688 417.699 255.399C324.573 246.679 227.527 242.461 112.705 236.209C83.8909 234.6 54.8632 232.814 25.6026 231.357C-43.0369 227.886 -110.223 226.755 -173.903 231.934C-301.04 242.214 -412.23 279.326 -448.743 329.19" stroke="#967393" stroke-miterlimit="10"/>
<path d="M2667.79 122.686C2589.51 106.243 2507.33 93.6276 2423.78 82.3972C2363.03 74.238 2302 67.7598 2240.42 64.1365C2129.14 57.4288 2014.18 60.5616 1914.33 77.8063C1882.16 83.3432 1852.58 90.3325 1825.8 98.8671C1691.7 141.363 1653.56 210.705 1569.17 267.62C1461.26 339.961 1243.68 392.376 1009.1 370.55C901.914 360.615 810.285 335.796 715.711 313.063C640.794 295.057 572.581 280.438 506.436 269.365C471.828 263.644 436.961 258.927 401.628 254.869C307.482 243.995 209.42 237.539 94.6172 230.781C65.8064 229.087 36.5587 227.292 7.29488 225.92C-61.5712 222.61 -129.006 222.231 -192.489 228.009C-319.231 239.488 -428.896 277.082 -464.975 327.131" stroke="#9E728D" stroke-miterlimit="10"/>
<path d="M2673.62 125.701C2594.01 109.461 2510.96 96.558 2426.53 85.2939C2365.13 77.1095 2303.44 70.606 2240.97 66.9491C2128.15 60.2669 2011.65 63.4253 1911.13 80.8981C1878.73 86.5111 1848.7 93.6525 1821.7 102.263C1686.25 145.469 1649.17 215.866 1563.22 273.145C1452.86 346.323 1228.5 397.463 992.186 374.81C885.012 364.537 792.71 340.03 698.595 316.807C624.568 298.582 556.391 283.033 490.291 270.778C455.709 264.381 420.651 258.895 385.127 254.069C289.961 241.041 190.882 232.347 76.0989 225.082C47.0746 223.211 18.0437 221.509 -11.4402 220.128C-80.5361 217.063 -148.217 217.351 -211.502 223.729C-337.849 236.408 -445.993 274.567 -481.418 324.811" stroke="#A67086" stroke-miterlimit="10"/>
<path d="M2679.24 128.707C2598.3 112.67 2514.38 99.48 2428.85 88.1738C2366.78 79.9642 2304.21 73.427 2241.09 69.7448C2126.95 63.0122 2008.89 66.2806 1907.48 84.0576C1874.86 89.7466 1844.39 96.9557 1817.16 105.727C1680.59 149.566 1644.35 221.011 1556.83 278.821C1444.23 352.845 1213.53 402.728 975.045 379.229C867.881 368.703 775.132 344.349 681.47 320.805C608.113 302.351 540.408 285.975 474.354 272.537C439.797 265.464 404.548 259.21 368.833 253.615C272.871 238.358 172.556 227.417 57.7851 219.814C28.764 217.859 -0.263624 216.072 -29.7541 214.86C-99.0765 211.956 -166.783 212.92 -230.091 219.888C-356.26 233.674 -462.882 272.399 -497.654 322.837" stroke="#AE6E80" stroke-miterlimit="10"/>
<path d="M2684.86 131.628C2602.59 115.794 2517.57 102.394 2431.16 91.0537C2368.43 82.8189 2305.2 76.2564 2241.2 72.5406C2125.74 65.8419 2006.14 69.1359 1904.06 87.141C1870.99 92.9821 1840.51 100.276 1812.84 109.199C1675.13 153.756 1639.74 226.163 1550.67 284.422C1435.83 359.206 1198.34 407.814 958.13 383.489C850.978 372.625 757.777 348.591 664.351 324.633C591.884 305.96 524.211 288.739 458.206 274.035C423.672 266.37 388.235 259.263 352.332 252.815C255.57 235.412 154.018 222.225 39.2669 214.116C10.249 212.076 -18.9988 210.281 -48.4924 209.153C-118.045 206.494 -185.997 208.125 -249.108 215.693C-375.098 230.585 -480.196 269.791 -514.314 320.424" stroke="#B66D7A" stroke-miterlimit="10"/>
<path d="M2690.48 134.634C2606.87 119.088 2520.99 105.316 2433.7 93.942C2370.31 85.6819 2306.42 79.0942 2241.54 75.3447C2124.75 68.5955 2003.38 72.0756 1900.63 90.2244C1867.34 96.1416 1836.42 103.503 1808.52 112.587C1669.47 157.853 1635.14 231.316 1544.28 290.015C1427.21 365.643 1183.38 412.994 940.992 387.824C834.07 376.715 739.978 352.901 647.012 328.454C575.215 309.552 508.018 291.419 441.837 275.523C407.109 267.175 371.698 259.392 335.828 252.1C238.269 232.467 135.477 217.117 20.7456 208.501C-8.2659 206.292 -37.5169 204.582 -67.2338 203.53C-137.013 201.032 -205.215 203.415 -268.127 211.583C-393.503 227.682 -497.3 267.445 -530.764 318.272" stroke="#BE6B73" stroke-miterlimit="10"/>
<path d="M2696.09 137.641C2611.15 122.297 2524.4 108.237 2436.01 96.8219C2371.96 88.5365 2307.19 81.9152 2241.65 78.1404C2123.54 71.4252 2000.63 74.9308 1896.99 93.2994C1863.48 99.2926 1832.11 106.806 1804.2 115.974C1664.02 161.959 1630.54 236.385 1538.12 295.531C1418.81 372.005 1168.41 418.174 924.077 392.083C817.168 380.637 722.623 357.144 629.893 332.282C558.766 313.153 492.045 294.107 425.909 277.029C391.207 268.005 355.605 259.454 319.543 251.392C221.185 229.614 117.157 212.018 2.44441 202.895C-26.5638 200.602 -56.0317 198.799 -85.7519 197.832C-155.76 195.578 -224.208 198.628 -286.92 207.311C-412.344 224.678 -514.4 265.015 -547.21 316.036" stroke="#C66A6D" stroke-miterlimit="10"/>
<path d="M2701.93 140.655C2615.66 125.514 2527.82 111.244 2438.54 99.7102C2373.84 91.3996 2308.41 84.753 2241.98 80.9446C2122.55 74.1789 1998.09 77.7945 1893.78 96.4757C1859.82 102.537 1828.45 110.134 1800.1 119.455C1658.57 166.065 1626.15 241.546 1532.17 301.225C1410.19 378.442 1153.22 423.514 907.158 396.427C800.256 384.812 705.041 361.547 612.774 336.111C542.534 316.846 475.848 296.871 409.761 278.526C375.085 268.826 339.512 259.515 303.039 250.677C203.884 226.669 98.6191 206.826 -16.0804 197.366C-45.0854 194.988 -74.5532 193.184 -104.497 192.293C-174.732 190.2 -243.429 194.002 -306.164 203.277C-430.969 221.766 -531.5 262.585 -563.876 313.792" stroke="#CE6867" stroke-miterlimit="10"/>
<path d="M2707.55 143.577C2619.95 128.639 2531.23 114.081 2440.86 102.506C2375.49 94.1698 2309.4 87.498 2242.1 83.6559C2121.34 76.9242 1995.12 80.6414 1890.14 99.4662C1855.96 105.603 1824.14 113.353 1795.57 122.834C1652.91 170.162 1621.32 246.691 1525.79 306.733C1401.57 384.795 1138.04 428.517 889.803 400.67C782.913 388.716 687.025 365.764 595.215 339.923C525.645 320.43 459.431 299.627 393.393 280.015C358.739 269.724 322.978 259.56 286.314 249.953C186.36 223.8 79.8583 201.711 -34.8218 191.743C-63.8203 189.196 -93.5115 187.469 -123.238 186.671C-193.703 184.822 -262.423 189.216 -325.183 199.166C-449.594 218.855 -548.823 260.231 -580.326 311.64" stroke="#D66760" stroke-miterlimit="10"/>
<path d="M2713.16 146.583C2559.84 121.181 2404.32 95.5256 2242.43 86.5445C2080.54 77.5634 1908.69 87.1488 1791.47 126.314C1647.46 174.352 1616.94 251.852 1519.84 312.342C1393.17 391.156 1123.29 433.62 873.105 405.022C686.124 383.578 531.446 330.125 377.465 281.521C223.484 232.917 49.3956 185.574 -141.759 181.057C-352.96 176.196 -550.163 231.843 -596.772 309.404" stroke="#DE655A" stroke-miterlimit="10"/>
<path d="M-584.847 308.845C-539.341 237.078 -363.003 185.201 -168.524 183.501C-155.735 183.398 -142.953 183.464 -130.184 183.867C53.0277 188.589 220.639 232.385 370.315 278.287C375.545 279.84 380.553 281.47 385.784 283.023C539.363 330.597 694.316 382.622 879.585 402.732C1127.64 429.472 1391.83 385.86 1520.43 308.558C1536.9 298.614 1551.85 288.189 1565.7 277.553C1634.28 224.94 1679.26 167.025 1799.52 128.991C1859.54 110.054 1932.94 98.4805 2011.85 92.785C2088.1 87.3263 2169.66 87.3994 2248.62 91.772C2409.64 100.55 2564.55 124.913 2715.75 148.035" stroke="#D56960" stroke-miterlimit="10"/>
<path d="M-573.144 308.277C-525.912 237.507 -349.635 187.235 -156.723 186.152C-144.154 186.04 -131.375 186.19 -118.606 186.594C63.0521 191.594 229.362 234.833 378.633 279.789C383.864 281.343 388.875 282.888 394.105 284.441C547.28 331.069 702.288 381.658 886.067 400.358C1132.21 425.249 1390.72 380.404 1521.02 304.689C1537.92 294.931 1552.86 284.76 1567.14 274.394C1637.87 223.216 1686.5 167.809 1807.57 131.667C1867.99 113.676 1941.15 102.77 2019.6 97.5645C2095.4 92.5114 2176.28 92.8125 2255.04 97.0078C2415.18 105.584 2569.25 128.646 2718.34 149.572" stroke="#CD6E67" stroke-miterlimit="10"/>
<path d="M-561.219 307.718C-512.262 237.944 -335.829 189.37 -144.701 188.811C-132.136 188.784 -119.577 188.925 -107.028 189.321C73.0738 194.684 238.085 237.281 386.952 281.292C392.183 282.845 397.197 284.306 402.428 285.859C555.418 331.549 710.48 380.702 892.331 397.975C1136.56 421.016 1389.39 374.94 1521.39 300.812C1538.51 291.232 1553.87 281.33 1568.59 271.235C1641.47 221.408 1693.75 168.509 1815.41 134.251C1876.02 117.197 1949.14 107.051 2027.14 102.251C2102.48 97.688 2182.92 98.0568 2261.01 102.142C2420.28 110.516 2573.74 132.37 2720.71 150.932" stroke="#C4726D" stroke-miterlimit="10"/>
<path d="M-549.515 307.151C-498.833 238.373 -322.462 191.403 -132.676 191.385C-120.331 191.35 -107.776 191.576 -95.2266 191.971C83.3181 197.698 247.032 239.654 395.49 282.802C400.724 284.271 405.735 285.816 410.749 287.277C563.338 331.937 718.452 379.738 898.813 395.601C1140.91 416.7 1388.05 369.475 1522.2 296.868C1539.53 287.549 1555.33 277.834 1570.47 268.093C1645.5 219.701 1701.43 169.226 1823.68 136.935C1884.69 120.828 1957.58 111.349 2034.89 107.031C2109.77 102.873 2189.54 103.47 2267.2 107.454C2425.59 115.625 2578.22 136.179 2723.08 152.545" stroke="#BC7773" stroke-miterlimit="10"/>
<path d="M-537.591 306.592C-485.184 238.81 -308.874 193.445 -120.655 194.044C-108.313 194.093 -95.9774 194.311 -83.6485 194.698C93.3393 200.788 255.755 242.102 403.809 284.305C408.823 285.765 414.057 287.234 419.071 288.695C571.255 332.409 726.647 378.698 905.296 393.226C1145.48 412.476 1386.72 364.01 1522.79 292.999C1540.33 283.858 1556.56 274.412 1572.13 264.942C1649.31 217.986 1708.9 170.019 1831.74 139.527C1892.94 124.357 1965.79 115.554 2042.64 111.726C2117.07 107.974 2196.39 108.723 2273.62 112.606C2431.13 120.574 2583.15 139.836 2725.88 154.005" stroke="#B37B7A" stroke-miterlimit="10"/>
<path d="M-525.667 306.033C-471.534 239.248 -295.289 195.572 -108.633 196.703C-96.5112 196.744 -84.179 197.046 -71.8533 197.517C103.578 203.971 264.915 244.651 412.341 285.984C417.355 287.445 422.592 288.829 427.606 290.29C579.389 332.973 735.053 377.92 911.993 391.029C1150.27 408.429 1385.82 358.731 1523.59 289.308C1541.35 280.344 1557.79 271.16 1573.79 261.96C1653.12 216.355 1716.36 170.896 1839.79 142.288C1901.39 128.064 1973.78 120.005 2050.39 116.59C2124.36 113.243 2203.24 114.144 2279.8 118.002C2436.67 125.776 2587.63 143.729 2728.25 155.618" stroke="#AB7F80" stroke-miterlimit="10"/>
<path d="M-513.963 305.465C-458.105 239.677 -281.921 197.606 -96.6081 199.277C-84.4896 199.402 -72.3775 199.696 -60.0518 200.168C113.822 206.985 273.859 247.108 420.883 287.41C425.9 288.786 431.138 290.171 436.152 291.631C587.75 333.378 743.249 376.88 918.7 388.579C1154.84 404.037 1384.71 353.191 1524.41 285.279C1542.38 276.492 1559.25 267.579 1575.68 258.649C1657.16 214.48 1724.05 171.444 1848.07 144.804C1910.07 131.526 1982.22 124.134 2058.16 121.116C2131.67 118.175 2209.88 119.304 2286.22 122.985C2442.22 130.471 2592.35 147.208 2731.06 156.91" stroke="#A28486" stroke-miterlimit="10"/>
<path d="M-502.038 304.906C-444.455 240.114 -268.115 199.741 -84.5865 201.936C-72.468 202.061 -60.5793 202.431 -48.4737 202.894C123.844 210.075 282.582 249.556 429.202 288.913C434.219 290.289 439.456 291.673 444.473 293.049C595.67 333.765 751.444 375.84 924.962 386.196C1159.19 399.804 1383.37 347.726 1524.77 281.402C1542.95 272.877 1560.26 264.15 1577.12 255.49C1660.98 212.765 1731.3 172.229 1856.13 147.396C1918.32 135.055 1990.43 128.423 2065.91 125.811C2138.97 123.36 2216.73 124.557 2292.42 128.128C2447.54 135.412 2597.06 150.856 2733.44 158.27" stroke="#9A888D" stroke-miterlimit="10"/>
<path d="M-490.114 304.347C-430.802 240.467 -254.527 201.783 -72.5616 204.511C-60.6664 204.712 -48.7744 204.997 -36.6721 205.545C134.088 213.089 291.529 251.928 437.741 290.423C442.761 291.715 447.778 293.091 453.019 294.391C603.811 334.161 759.86 374.808 931.669 383.746C1163.99 395.504 1382.26 342.185 1525.59 277.458C1543.98 269.11 1561.72 260.653 1579.01 252.347C1665.01 210.973 1738.98 172.946 1864.4 150.081C1926.99 138.686 1998.86 132.721 2073.88 130.599C2146.48 128.553 2223.58 129.978 2298.83 133.448C2453.07 140.53 2601.76 154.758 2736.24 159.9" stroke="#918C93" stroke-miterlimit="10"/>
<path d="M-478.407 303.695C-417.373 240.896 -241.159 203.817 -60.5367 207.085C-48.6415 207.286 -36.9728 207.648 -25.0938 208.271C144.113 216.094 300.252 254.377 446.06 291.926C451.08 293.217 456.1 294.509 461.121 295.801C611.511 334.54 767.609 373.92 937.932 381.363C1168.11 391.433 1380.71 336.713 1525.96 273.581C1544.78 265.419 1562.51 257.215 1580.45 249.188C1668.6 209.25 1746.01 173.637 1872.24 152.664C1935.02 142.207 2006.63 136.994 2081.2 135.278C2153.34 133.637 2229.99 135.214 2304.8 138.582C2458.18 145.462 2606.25 158.398 2738.39 161.251" stroke="#899199" stroke-miterlimit="10"/>
<path d="M-466.482 303.136C-403.723 241.333 -227.571 205.859 -48.5151 209.744C-36.8432 210.021 -24.9545 210.391 -13.2955 211.006C154.354 219.193 309.196 256.833 454.595 293.521C459.615 294.813 464.639 296.02 469.659 297.311C619.645 335.105 776.018 373.058 944.632 379.082C1172.9 387.217 1379.81 331.349 1526.76 269.721C1545.8 261.82 1563.96 253.802 1582.11 246.038C1672.42 207.535 1753.48 174.43 1880.29 155.341C1943.47 145.829 2014.84 141.284 2088.95 140.057C2160.64 138.822 2236.83 140.636 2310.99 143.894C2463.49 150.571 2610.73 162.206 2740.98 162.872" stroke="#8095A0" stroke-miterlimit="10"/>
<path d="M-454.558 302.576C-390.074 241.77 -213.986 207.985 -36.4934 212.403C-24.8216 212.68 -13.1562 213.126 -1.49723 213.741C164.596 222.291 318.136 259.375 463.134 295.032C468.157 296.239 473.178 297.53 478.201 298.738C628.003 335.593 784.43 372.111 951.115 376.707C1177.47 382.993 1378.48 325.885 1527.35 265.852C1546.6 258.129 1565.2 250.381 1583.78 242.887C1676.23 205.735 1760.94 175.139 1888.35 157.932C1951.93 149.367 2023.06 145.573 2096.71 144.752C2168.15 144.016 2243.47 145.88 2317.41 149.046C2469.03 155.52 2615.66 165.863 2743.57 164.24" stroke="#789AA6" stroke-miterlimit="10"/>
<path d="M-442.854 302.009C-376.644 242.199 -200.398 210.027 -24.4683 214.978C-13.0197 215.331 -1.35429 215.777 10.0846 216.383C174.621 225.296 327.083 261.747 471.456 296.449C476.48 297.657 481.503 298.864 486.527 300.071C635.927 335.896 792.409 370.978 957.602 374.248C1181.82 378.677 1377.15 320.335 1527.95 261.899C1547.41 254.354 1566.43 246.876 1585.44 239.652C1680.05 203.935 1768.41 175.763 1896.4 160.524C1960.18 152.897 2031.27 149.778 2104.24 149.439C2175.23 149.108 2250.1 151.209 2323.38 154.265C2474.13 160.536 2619.93 169.579 2745.94 165.769" stroke="#6F9EAC" stroke-miterlimit="10"/>
<path d="M-430.93 301.45C-362.995 242.636 -186.81 212.069 -12.447 217.637C-0.998485 217.99 10.4436 218.512 21.8824 219.118C184.862 228.395 336.026 264.203 479.991 298.045C485.015 299.252 490.042 300.374 495.065 301.582C644.06 336.461 800.818 370.115 964.301 371.967C1186.61 374.546 1376.25 314.888 1528.97 258.132C1548.65 250.764 1567.88 243.548 1587.54 236.687C1684.3 202.406 1776.32 176.657 1905.11 163.31C1969.29 156.629 2040.14 154.262 2112.66 154.244C2183.19 154.318 2257.39 156.563 2330.23 159.517C2480.11 165.586 2625.29 173.337 2749.18 167.246" stroke="#66A2B3" stroke-miterlimit="10"/>
<path d="M-419.005 300.891C-349.345 243.074 -173.224 214.196 -0.421813 220.211C10.8034 220.64 22.2454 221.162 33.461 221.845C194.883 231.485 344.75 266.651 488.31 299.547C493.337 300.67 498.364 301.792 503.167 302.991C651.761 336.84 808.79 369.151 970.564 369.584C1190.96 370.229 1374.7 309.415 1529.34 254.17C1549.23 247.064 1568.9 240.034 1588.77 233.435C1687.68 200.505 1783.34 177.348 1912.73 165.885C1977.31 160.15 2047.69 158.442 2119.97 158.922C2190.05 159.402 2263.8 161.799 2336.21 164.652C2485.21 170.518 2629.56 177.052 2751.33 168.682" stroke="#5EA7B9" stroke-miterlimit="10"/>
<path d="M-407.301 300.323C-335.916 243.503 -159.857 216.23 11.5997 222.87C22.8249 223.299 34.0436 223.897 45.2591 224.58C205.125 234.583 353.693 269.108 496.846 301.142C501.872 302.265 506.679 303.379 511.709 304.417C660.118 337.329 816.985 368.111 977.267 367.218C1195.53 366.005 1373.58 303.958 1530.15 250.31C1550.25 243.381 1570.35 236.622 1590.65 230.292C1691.71 198.798 1791.03 178.065 1921.01 168.486C1985.77 163.688 2056.13 162.656 2127.73 163.617C2197.35 164.587 2270.65 167.136 2342.4 169.88C2490.53 175.543 2634.05 180.777 2753.92 170.219" stroke="#55ABC0" stroke-miterlimit="10"/>
<path d="M-395.377 299.764C-322.046 243.948 -146.048 218.28 23.6246 225.444C34.6265 225.95 45.8452 226.548 56.8406 227.222C215.149 237.589 362.419 271.472 505.167 302.56C510.197 303.598 515.004 304.712 520.034 305.751C668.042 337.632 825.181 367.071 983.534 364.751C1199.89 361.604 1372.25 298.409 1530.52 246.349C1550.84 239.597 1571.37 233.108 1592.1 227.049C1695.31 196.906 1798.28 178.681 1928.84 171.069C1994.01 167.217 2064.12 166.937 2135.26 168.304C2204.42 169.679 2277.06 172.372 2348.38 175.014C2495.85 180.483 2638.54 184.416 2756.07 171.57" stroke="#4DB0C6" stroke-miterlimit="10"/>
<path d="M-383.453 299.205C-308.396 244.386 -132.463 220.407 35.6462 228.103C46.6481 228.609 57.6467 229.198 68.6389 229.957C225.611 240.696 371.36 274.013 513.706 304.071C518.736 305.109 523.546 306.139 528.576 307.177C676.179 338.112 833.593 366.124 990.237 362.385C1204.68 357.389 1371.14 292.953 1531.33 242.489C1552.08 236.007 1572.6 229.687 1593.98 223.906C1699.34 195.199 1805.96 179.482 1937.12 173.67C2002.48 170.755 2072.56 171.151 2143.24 173.007C2211.94 174.788 2284.13 177.717 2355.01 180.258C2501.61 185.441 2643.46 188.157 2759.1 173.124" stroke="#44B4CC" stroke-miterlimit="10"/>
<path d="M-371.748 298.637C-294.967 244.814 -119.095 222.441 47.668 230.762C58.6699 231.267 69.4452 231.933 80.4341 232.776C235.852 243.794 380.3 276.554 522.239 305.75C527.269 306.788 532.082 307.734 537.112 308.772C684.314 338.677 841.782 365.252 996.934 360.188C1209.25 353.249 1370.02 287.666 1532.14 238.713C1553.1 232.409 1574.05 226.359 1595.64 220.924C1703.15 193.653 1813.43 180.36 1945.17 176.431C2010.93 174.462 2080.54 175.601 2150.77 177.863C2219.02 180.049 2290.54 183.122 2360.98 185.562C2506.71 190.542 2647.95 191.966 2761.25 174.644" stroke="#3CB8D3" stroke-miterlimit="10"/>
<path d="M-359.824 298.078C-281.317 245.252 -105.51 224.567 59.6927 233.337C70.4713 233.918 81.2466 234.584 92.0155 235.418C245.877 246.799 389.026 278.918 530.56 307.168C535.374 308.113 540.404 309.152 545.217 310.097C692.014 339.056 849.764 364.035 1003.2 357.805C1213.6 348.848 1368.68 282.201 1532.51 234.836C1553.68 228.709 1575.06 222.929 1597.08 217.765C1706.74 191.845 1820.67 181.06 1953.22 179.107C2019.39 178.084 2088.75 179.89 2158.52 182.642C2226.31 185.234 2297.38 188.544 2367.39 190.882C2512.24 195.659 2652.65 195.783 2764.05 176.273" stroke="#33BDD9" stroke-miterlimit="10"/>
<path d="M-348.12 297.511C-267.888 245.681 -92.142 226.601 71.4944 235.987C82.2729 236.569 92.8249 237.31 103.594 238.145C255.898 249.889 397.97 281.375 538.879 308.67C543.692 309.616 548.726 310.569 553.539 311.515C700.151 339.536 857.736 363.071 1009.46 355.423C1217.73 344.607 1367.13 276.728 1532.88 230.959C1554.26 225.094 1576.08 219.5 1598.53 214.606C1710.33 190.121 1827.92 181.844 1961.06 181.69C2027.41 181.605 2096.74 184.172 2166.06 187.245C2233.39 190.327 2304.02 193.704 2373.37 195.932C2517.35 200.507 2657.14 199.423 2766.2 177.54" stroke="#2BC1DF" stroke-miterlimit="10"/>
<path d="M-336.196 296.951C-254.238 246.118 -78.3369 228.736 83.7361 238.655C94.2913 239.312 104.843 240.054 115.392 240.88C266.14 252.988 406.913 283.831 547.415 310.265C552.228 311.211 557.264 312.08 562.077 313.025C708.289 340.016 866.145 362.208 1016.16 353.141C1222.52 340.476 1366.23 271.365 1533.68 227.099C1555.28 221.412 1577.31 216.079 1600.41 211.464C1714.37 188.414 1835.6 182.561 1969.33 184.375C2036.08 185.32 2105.18 188.469 2173.81 192.024C2240.69 195.512 2310.65 199.117 2379.56 201.16C2522.67 205.532 2661.63 203.147 2768.79 179.077" stroke="#22C5E6" stroke-miterlimit="10"/>
<path d="M-324.268 296.308C-240.586 246.471 -64.7457 230.694 95.764 241.145C106.319 241.802 116.648 242.62 127.197 243.446C276.387 255.917 415.863 286.119 555.96 311.607C560.776 312.468 565.593 313.329 570.626 314.283C716.432 340.328 874.347 360.999 1022.87 350.606C1227.1 335.999 1365.13 265.74 1534.5 223.07C1556.31 217.56 1578.76 212.582 1602.08 208.144C1718.41 186.454 1843.08 183.101 1977.39 186.798C2044.55 188.689 2113.18 192.582 2181.58 196.55C2247.99 200.443 2317.5 204.201 2385.98 206.227C2528.21 210.396 2666.56 206.719 2771.39 180.36" stroke="#1ACAEC" stroke-miterlimit="10"/>
<path d="M-312.564 295.74C-227.156 246.9 -51.3775 232.727 107.566 243.795C117.898 244.528 128.226 245.346 138.772 246.257C286.406 259.092 424.58 288.736 564.272 313.278C569.088 314.139 573.905 315 578.945 315.785C724.35 340.8 882.536 360.128 1029.35 348.316C1231.67 331.86 1363.79 260.359 1535.31 219.294C1557.33 213.962 1580.21 209.254 1603.96 205.171C1722.44 184.917 1850.76 184.071 1985.66 189.652C2053 192.48 2121.6 197.049 2189.54 201.507C2255.5 205.806 2324.35 209.707 2392.39 211.631C2533.75 215.598 2671.26 210.621 2774.19 182.074" stroke="#11CEF2" stroke-miterlimit="10"/>
<path d="M-300.64 295.181C-213.507 247.337 -37.7926 234.854 119.811 246.378C130.142 247.111 140.468 248.014 150.573 248.908C296.65 262.106 433.527 291.108 573.034 314.713C577.854 315.49 582.67 316.35 587.49 317.127C732.71 341.204 890.951 359.097 1035.84 345.858C1236.24 327.552 1362.68 254.819 1535.9 215.341C1558.13 210.27 1581.45 205.748 1605.62 201.936C1726.25 183.117 1858.23 184.695 1993.72 192.159C2061.47 195.934 2129.82 201.254 2197.08 206.11C2262.58 210.898 2330.98 214.951 2398.58 216.774C2539.07 220.539 2675.97 214.269 2776.56 183.434" stroke="#09D3F9" stroke-miterlimit="10"/>
<path d="M-288.716 294.622C-199.857 247.774 -23.9843 236.904 131.832 249.037C287.649 261.169 432.831 292.012 581.353 316.215C730.091 340.512 894.276 358.632 1042.32 343.483C1266.26 320.748 1391.2 229.518 1607.29 198.785C1791.24 172.66 2004.2 194.844 2204.84 210.805C2405.47 226.765 2633.12 233.778 2779.15 184.886" stroke="#00D7FF" stroke-miterlimit="10"/>
</g>
</svg>
