<svg width="1920" height="868" viewBox="0 0 1920 868" fill="none" xmlns="http://www.w3.org/2000/svg">
<mask id="mask0_56_1366" style="mask-type:alpha" maskUnits="userSpaceOnUse" x="0" y="0" width="1920" height="868">
<rect width="1920" height="868" fill="#F0F8FF"/>
</mask>
<g mask="url(#mask0_56_1366)">
<path d="M-16.6359 842.728C0.577884 806.906 52.0522 782.25 102.524 785.575C138.455 787.959 172.883 802.89 208.648 799.189C252.184 794.735 280.929 765.813 310.176 744.294C346.86 717.317 382.708 706.024 434.098 717.568C472.203 726.1 503.622 745.737 544.651 745.8C620.108 745.925 657.042 686.638 681.192 641.907C705.508 596.862 729.574 549.181 791.16 526.094C841.631 507.148 892.019 509.155 944.496 521.201C969.732 526.972 994.466 530.862 1015.36 544.351" stroke="#0D8EFF" stroke-miterlimit="10"/>
<path d="M1017.7 546.484C996.305 533.183 971.153 529.106 945.583 523.334C926.781 519.068 908.23 516.119 889.847 514.864C856.171 512.543 822.997 516.182 789.99 528.604C779.795 532.493 770.52 537.01 762.164 542.092C719.63 568.065 699.91 608.28 678.936 646.298C653.951 691.657 614.509 750.254 538.3 749.564C497.188 749.25 465.601 729.864 427.664 720.956C393.821 713.114 366.664 714.87 341.428 724.281C328.643 729.049 316.443 735.824 303.992 744.231C274.411 764.307 245.081 791.472 201.628 795.55C190.849 796.554 180.237 795.989 169.624 794.672C144.89 791.535 120.49 784.257 95.4209 783.065C45.0329 780.556 -5.85646 805.588 -22.8196 841.536" stroke="#158CF9" stroke-miterlimit="10"/>
<path d="M1019.87 548.554C997.976 535.442 972.49 531.176 946.502 525.404C927.45 521.138 908.565 518.127 889.93 516.935C855.753 514.676 821.911 518.377 788.736 530.988C778.375 534.94 769.099 539.52 760.659 544.79C717.709 571.328 698.322 612.232 676.763 650.69C650.942 696.739 608.911 754.52 531.95 753.265C490.921 752.701 459.084 733.503 421.23 724.343C387.722 716.313 360.564 717.38 335.328 725.912C322.543 730.178 310.259 736.452 297.725 744.231C267.893 762.864 237.978 788.273 194.526 792.037C183.746 792.978 173.05 792.413 162.438 791.096C137.62 788.147 113.136 781.372 88.1511 780.556C37.8466 778.988 -12.4578 804.333 -29.1702 840.407" stroke="#1D8BF2" stroke-miterlimit="10"/>
<path d="M1022.04 550.624C999.647 537.701 973.826 533.309 947.421 527.474C928.118 523.208 908.982 520.197 890.014 519.005C855.335 516.746 820.908 520.573 787.399 533.434C776.954 537.45 767.511 542.155 758.988 547.488C715.619 574.59 696.567 616.247 674.423 655.019C647.683 701.758 603.228 758.598 525.515 756.967C484.486 756.151 452.482 737.142 414.712 727.669C381.538 719.387 354.464 719.952 329.228 727.543C316.443 731.37 304.076 737.079 291.541 744.231C261.375 761.421 230.959 785.01 187.423 788.461C176.643 789.276 165.947 788.712 155.251 787.52C130.35 784.697 105.783 778.486 80.8811 778.109C30.8274 777.356 -18.8921 803.079 -35.4374 839.278" stroke="#2589EC" stroke-miterlimit="10"/>
<path d="M1024.21 552.632C1001.32 539.896 975.08 535.316 948.424 529.482C928.87 525.216 909.484 522.204 890.181 521.012C855.001 518.817 819.989 522.769 786.23 535.756C775.701 539.834 766.091 544.602 757.484 550.06C713.614 577.664 694.98 620.074 672.251 659.285C644.675 706.652 597.713 762.676 519.248 760.606C478.219 759.476 445.964 740.718 408.361 730.994C375.438 722.461 348.447 722.461 323.211 729.112C310.426 732.499 298.059 737.644 285.358 744.168C254.858 759.853 223.94 781.748 180.404 784.822C169.624 785.575 158.845 785.01 148.149 783.881C123.164 781.246 98.5127 775.537 73.6948 775.6C23.8082 775.662 -25.41 801.761 -41.621 838.086" stroke="#2D88E6" stroke-miterlimit="10"/>
<path d="M1026.47 554.702C1003.07 542.155 976.501 537.387 949.426 531.615C929.622 527.349 909.902 524.337 890.348 523.145C854.667 520.95 818.986 525.028 784.976 538.202C774.28 542.343 764.67 547.237 755.896 552.82C711.608 580.989 693.308 624.09 669.995 663.677C641.5 711.733 592.115 766.942 512.814 764.307C471.785 762.99 439.363 744.419 401.844 734.381C369.254 725.661 342.347 725.034 317.028 730.743C304.159 733.629 291.792 738.271 279.007 744.168C248.256 758.41 216.753 778.548 173.217 781.246C162.438 781.936 151.658 781.372 140.962 780.305C115.894 777.796 91.2429 772.588 66.3413 773.09C16.5383 774.031 -32.0114 800.506 -48.0553 836.957" stroke="#3586DF" stroke-miterlimit="10"/>
<path d="M1028.64 556.773C1004.74 544.413 977.838 539.52 950.346 533.685C930.291 529.419 910.319 526.408 890.431 525.216C854.249 523.083 817.983 527.223 783.639 540.586C772.86 544.79 763.083 549.746 754.225 555.455C709.436 584.189 691.554 628.042 667.571 667.943C638.241 716.69 586.265 771.083 506.296 767.946C465.267 766.377 432.678 747.995 395.242 737.644C362.987 728.735 336.08 727.48 310.844 732.248C297.976 734.695 285.525 738.773 272.656 744.043C241.488 756.841 209.567 775.223 166.031 777.607C155.168 778.172 144.472 777.607 133.692 776.603C108.54 774.282 83.8058 769.577 58.9878 770.518C9.35188 772.337 -38.6128 799.126 -54.4061 835.702" stroke="#3D85D9" stroke-miterlimit="10"/>
<path d="M1030.82 558.843C1006.42 546.672 979.091 541.59 951.348 535.756C931.043 531.49 910.821 528.478 890.599 527.286C853.915 525.153 817.064 529.419 782.469 543.033C771.606 547.299 761.662 552.381 752.721 558.153C707.514 587.451 689.966 631.994 665.399 672.334C635.149 721.709 580.75 775.286 499.945 771.71C459 769.891 426.16 751.76 388.808 741.094C356.803 731.997 330.064 730.115 304.744 733.942C291.876 735.887 279.341 739.463 266.389 744.106C234.886 755.461 202.464 772.024 158.928 774.094C148.065 774.596 137.286 774.031 126.506 773.09C101.27 770.894 76.4523 766.754 51.7179 768.134C2.2491 770.769 -45.2142 797.934 -60.7568 834.635" stroke="#4583D3" stroke-miterlimit="10"/>
<path d="M1032.99 560.85C1008.09 548.93 980.428 543.598 952.268 537.763C931.711 533.497 911.155 530.486 890.682 529.294C853.414 527.223 815.978 531.615 781.132 545.354C770.102 549.683 760.158 554.828 751.05 560.788C705.341 590.588 688.211 635.884 663.059 676.601C631.974 726.665 575.068 779.427 493.511 775.286C452.566 773.216 419.559 755.273 382.29 744.357C350.62 735.009 323.88 732.562 298.644 735.448C285.692 736.954 273.158 739.965 260.206 743.98C228.368 753.83 195.445 768.699 151.909 770.393C141.046 770.832 130.266 770.267 119.403 769.389C94.0839 767.381 69.1824 763.742 44.5316 765.499C-4.7701 769.012 -51.6485 796.491 -66.9404 833.381" stroke="#4D81CC" stroke-miterlimit="10"/>
<path d="M1035.16 562.921C1009.76 551.189 981.765 545.731 953.187 539.834C932.38 535.567 911.573 532.556 890.766 531.427C852.996 529.356 814.975 533.874 779.795 547.801C768.682 552.193 758.571 557.463 749.462 563.485C703.336 593.85 686.54 639.837 660.803 680.992C628.798 731.746 569.469 783.693 487.161 779.05C446.215 776.729 412.957 759.037 375.856 747.744C344.52 738.208 317.78 735.072 292.544 737.079C279.592 738.083 266.974 740.592 253.938 743.98C221.683 752.387 188.342 765.499 144.806 766.879C133.943 767.193 123.08 766.691 112.217 765.875C86.8141 763.993 61.829 760.919 37.2617 763.115C-11.9564 767.507 -58.1663 795.362 -73.2075 832.314" stroke="#5580C6" stroke-miterlimit="10"/>
<path d="M1037.42 564.991C1011.51 553.448 983.102 547.801 954.189 541.967C933.132 537.701 912.074 534.626 891.016 533.56C852.745 531.552 814.139 536.132 778.709 550.311C767.512 554.765 757.233 560.098 748.042 566.246C701.414 597.175 685.036 643.914 658.714 685.384C625.874 736.765 564.038 787.959 480.893 782.814C439.948 780.242 406.523 762.739 369.505 751.195C338.42 741.471 311.847 737.706 286.611 738.773C273.659 739.338 260.958 741.282 247.838 744.043C215.249 750.944 181.406 762.362 137.871 763.366C127.007 763.617 116.144 763.052 105.281 762.299C79.7948 760.606 54.8097 757.971 30.2425 760.668C-18.8085 765.875 -64.5171 794.107 -79.3076 831.185" stroke="#5D7EC0" stroke-miterlimit="10"/>
<path d="M1039.59 567.061C1013.18 555.706 984.439 549.872 955.192 544.037C933.8 539.771 912.492 536.697 891.184 535.63C852.411 533.623 813.137 538.391 777.455 552.695C766.091 557.274 755.813 562.67 746.454 568.944C699.408 600.438 683.364 647.867 656.457 689.775C622.615 741.722 558.272 792.162 474.375 786.453C433.43 783.693 399.838 766.377 362.904 754.457C332.153 744.545 305.58 740.153 280.344 740.279C267.308 740.341 254.607 741.784 241.404 743.917C208.397 749.313 174.137 758.974 130.601 759.664C119.738 759.79 108.791 759.288 97.9278 758.598C72.3578 757.03 47.2891 754.959 22.8054 758.033C-26.0785 764.119 -71.2021 792.664 -85.7419 829.93" stroke="#657DB9" stroke-miterlimit="10"/>
<path d="M1041.76 569.069C1014.86 557.902 985.776 551.942 956.111 546.045C934.469 541.778 912.91 538.704 891.267 537.638C851.993 535.693 812.134 540.524 776.118 555.016C764.67 559.659 754.225 565.117 744.783 571.516C697.319 603.512 681.61 651.694 654.034 693.979C619.439 746.678 552.59 796.366 467.941 790.092C427.079 787.081 393.237 770.016 356.386 757.782C325.969 747.682 299.48 742.663 274.16 741.847C261.125 741.408 248.256 742.286 235.053 743.855C201.628 747.744 166.95 755.712 123.414 756.026C112.551 756.088 101.605 755.587 90.6579 754.959C65.0043 753.579 39.8521 752.011 15.4519 755.524C-33.2648 762.488 -77.8035 791.409 -92.1761 828.738" stroke="#6D7BB3" stroke-miterlimit="10"/>
<path d="M1043.94 571.139C1016.53 560.16 987.029 554.012 957.031 548.115C935.137 543.849 913.328 540.775 891.351 539.708C851.575 537.763 811.131 542.719 774.865 557.463C763.333 562.168 752.721 567.752 743.195 574.214C695.23 606.774 679.938 655.709 651.778 698.37C616.348 751.76 546.991 800.632 461.59 793.856C420.729 790.594 386.635 773.78 349.951 761.233C319.785 750.944 293.38 745.298 268.144 743.541C255.108 742.663 242.156 742.976 228.953 743.917C195.111 746.301 160.015 752.575 116.479 752.575C105.532 752.575 94.6689 752.011 83.6387 751.509C57.9015 750.254 32.6657 749.25 8.34915 753.203C-40.284 760.982 -84.2377 790.28 -98.2762 827.734" stroke="#757AAD" stroke-miterlimit="10"/>
<path d="M1046.11 573.21C1018.2 562.419 988.367 556.082 957.95 550.185C935.806 545.856 913.662 542.845 891.434 541.778C851.157 539.834 810.045 544.915 773.528 559.847C761.913 564.615 751.133 570.261 741.524 576.848C693.141 609.974 678.184 659.599 649.438 702.636C613.089 756.716 541.309 804.772 455.156 797.495C414.294 794.044 380.034 777.356 343.434 764.495C313.602 754.018 287.196 747.682 261.96 745.047C248.925 743.667 235.889 743.416 222.603 743.792C188.342 744.67 152.828 749.25 109.292 748.874C98.3457 748.748 87.399 748.246 76.3688 747.744C50.5481 746.615 25.2288 746.176 0.995719 750.505C-47.4703 759.163 -90.8391 788.775 -104.71 826.417" stroke="#7E78A6" stroke-miterlimit="10"/>
<path d="M1048.36 575.28C1019.95 564.74 989.703 558.216 959.036 552.318C936.641 547.989 914.247 544.978 891.685 543.911C850.907 542.029 809.209 547.237 772.358 562.293C760.576 567.124 749.796 572.896 740.02 579.609C691.136 613.299 676.596 663.614 647.266 707.028C610.08 761.735 535.794 809.039 448.889 801.196C408.027 797.495 373.599 781.058 337.083 767.883C307.502 757.218 281.263 750.254 256.027 746.678C242.908 744.859 229.872 744.043 216.503 743.792C181.824 743.102 145.892 746.051 102.273 745.298C91.3264 745.109 80.3797 744.608 69.3495 744.168C43.4452 743.227 18.1259 743.227 -6.10713 748.058C-54.4061 757.594 -97.1899 787.52 -110.811 825.288" stroke="#8676A0" stroke-miterlimit="10"/>
<path d="M1050.54 577.35C1021.62 566.999 991.04 560.286 959.955 554.389C937.31 550.06 914.665 547.048 891.769 545.982C850.489 544.1 808.206 549.432 771.105 564.677C759.239 569.571 748.292 575.406 738.515 582.244C689.214 616.436 675.008 667.566 645.093 711.357C606.989 766.754 530.195 813.305 442.538 804.898C401.676 801.008 367.082 784.759 330.648 771.208C301.402 760.355 275.163 752.763 249.927 748.246C236.808 745.925 223.689 744.545 210.235 743.729C175.139 741.471 138.79 742.725 95.1703 741.659C84.2236 741.408 73.1934 740.843 62.1632 740.53C36.1754 739.714 10.7725 740.279 -13.377 745.549C-61.5923 755.9 -103.791 786.265 -117.161 824.096" stroke="#8E7599" stroke-miterlimit="10"/>
<path d="M1052.71 579.358C1023.3 569.195 992.377 562.293 960.875 556.396C937.978 552.067 914.999 549.056 891.852 547.989C850.071 546.17 807.12 551.565 769.768 567.061C757.818 572.018 746.705 577.978 736.844 584.879C687.041 619.635 673.253 671.456 642.67 715.623C603.73 771.71 524.429 817.508 435.937 808.537C395.158 804.396 360.23 788.398 323.964 774.533C294.967 763.491 268.812 755.21 243.577 749.815C230.457 746.992 217.171 745.109 203.801 743.667C168.371 739.84 131.52 739.463 87.9004 738.083C76.9537 737.706 65.9235 737.205 54.8097 736.954C28.7383 736.326 3.25187 737.393 -20.814 743.039C-68.8623 754.269 -110.476 784.948 -123.596 822.966" stroke="#967393" stroke-miterlimit="10"/>
<path d="M1054.88 581.428C1024.97 571.453 993.631 564.427 961.794 558.466C938.647 554.138 915.417 551.064 892.019 550.122C849.737 548.303 806.201 553.887 768.598 569.508C756.481 574.527 745.368 580.55 735.34 587.639C685.119 622.96 671.666 675.471 640.497 720.077C600.638 776.792 518.914 821.837 429.67 812.301C388.891 807.972 353.795 792.162 317.613 777.984C288.951 766.754 262.88 757.845 237.644 751.509C224.441 748.246 211.155 745.737 197.701 743.729C161.853 738.334 124.584 736.326 80.9646 734.57C70.018 734.13 58.9042 733.629 47.7905 733.44C21.6355 732.938 -3.93452 734.57 -27.9169 740.655C-75.798 752.763 -116.827 783.756 -129.779 821.9" stroke="#9E728D" stroke-miterlimit="10"/>
<path d="M1057.14 583.499C1026.72 573.712 995.051 566.497 962.88 560.537C939.483 556.208 916.002 553.134 892.27 552.193C849.402 550.436 805.282 556.082 767.428 571.892C755.228 576.974 743.947 583.122 733.836 590.274C683.114 626.16 670.078 679.424 638.324 724.343C597.546 781.748 513.232 826.04 423.319 815.94C382.541 811.36 347.194 795.801 311.178 781.246C282.851 769.828 256.779 760.229 231.544 753.014C218.341 749.25 204.971 746.176 191.434 743.604C155.168 736.64 117.481 733.001 73.8619 730.868C62.8317 730.303 51.8015 729.864 40.6041 729.676C14.3656 729.362 -11.288 731.495 -35.1868 738.02C-82.9008 751.007 -123.345 782.375 -136.046 820.645" stroke="#A67086" stroke-miterlimit="10"/>
<path d="M1059.31 585.569C1028.39 575.97 996.389 568.567 963.799 562.607C940.151 558.278 916.336 555.204 892.354 554.263C848.985 552.506 804.279 558.278 766.091 574.339C753.807 579.483 742.359 585.694 732.165 592.972C681.025 629.359 668.323 683.376 635.985 728.735C594.371 786.83 507.633 830.369 416.885 819.704C376.106 814.936 340.592 799.503 304.744 784.697C276.667 773.09 250.763 762.864 225.527 754.771C212.324 750.505 198.871 746.866 185.25 743.729C148.65 735.134 110.462 729.864 66.8427 727.48C55.8125 726.853 44.7823 726.351 33.585 726.288C7.2629 726.1 -18.3907 728.735 -42.2895 735.699C-89.9199 749.501 -129.779 781.246 -142.23 819.641" stroke="#AE6E80" stroke-miterlimit="10"/>
<path d="M1061.48 587.577C1030.06 578.166 997.642 570.638 964.718 564.677C940.82 560.349 916.754 557.274 892.437 556.333C848.567 554.64 803.276 560.474 764.838 576.723C752.387 581.993 740.939 588.267 730.577 595.67C679.019 632.622 666.652 687.329 633.729 733.064C591.279 791.786 501.951 834.573 410.534 823.343C369.756 818.324 334.075 803.141 298.31 788.022C270.567 776.227 244.663 765.374 219.427 756.339C206.224 751.634 192.687 747.368 178.983 743.604C142.049 733.44 103.359 726.539 59.7399 723.779C48.7097 723.089 37.5959 722.587 26.3986 722.587C-0.00707081 722.587 -25.7442 725.724 -49.5594 733.127C-97.1063 747.744 -136.381 779.803 -148.581 818.324" stroke="#B66D7A" stroke-miterlimit="10"/>
<path d="M1063.66 589.647C1031.74 580.487 998.979 572.708 965.721 566.748C941.572 562.419 917.255 559.345 892.604 558.404C848.233 556.71 802.274 562.733 763.584 579.107C751.05 584.44 739.435 590.776 728.99 598.305C676.93 635.821 664.981 691.281 631.389 737.393C588.104 796.805 496.352 838.839 404.1 827.044C363.405 821.837 327.39 806.843 291.792 791.347C264.3 779.364 238.563 767.82 213.244 757.908C199.957 752.701 186.42 747.933 172.716 743.541C135.447 731.746 96.2566 723.277 52.6371 720.14C41.6069 719.325 30.4931 718.885 19.2123 718.948C-7.27696 719.074 -33.0977 722.775 -56.8293 730.617C-104.126 746.113 -142.898 778.548 -154.848 817.194" stroke="#BE6B73" stroke-miterlimit="10"/>
<path d="M1065.83 591.717C1033.41 582.746 1000.32 574.778 966.64 568.818C942.24 564.489 917.589 561.415 892.688 560.474C847.815 558.843 801.271 564.928 762.247 581.491C749.629 586.886 737.847 593.348 727.402 600.94C674.925 639.021 663.31 695.171 629.133 741.659C585.012 801.761 490.754 843.105 397.749 830.683C357.054 825.225 320.872 810.482 285.358 794.672C258.117 782.501 232.546 770.267 207.227 759.476C193.941 753.767 180.32 748.435 166.532 743.478C128.929 730.115 89.2373 720.015 45.6179 716.501C34.5877 715.623 23.3903 715.121 12.1095 715.247C-14.4633 715.56 -40.3676 719.764 -64.0157 727.982C-111.312 744.419 -149.416 777.231 -161.115 816.002" stroke="#C66A6D" stroke-miterlimit="10"/>
<path d="M1068.08 593.787C1035.16 585.004 1001.65 576.911 967.643 570.888C942.992 566.56 918.091 563.485 892.855 562.544C847.481 560.913 800.351 567.124 761.077 583.938C748.292 589.396 736.51 595.921 725.898 603.637C672.919 642.221 661.722 699.123 626.96 746.051C581.836 806.78 485.071 847.496 391.398 834.384C350.703 828.801 314.27 814.246 278.923 797.997C252.016 785.7 226.446 772.777 201.127 761.045C187.841 754.834 174.22 748.936 160.265 743.416C122.328 728.421 82.1345 716.69 38.5151 712.925C27.4849 711.984 16.2875 711.482 4.92309 711.671C-21.7332 712.11 -47.7211 716.878 -71.3692 725.535C-118.415 742.788 -155.934 775.913 -167.466 814.81" stroke="#CE6867" stroke-miterlimit="10"/>
<path d="M1070.26 595.795C1036.83 587.2 1002.99 578.919 968.562 572.896C943.661 568.567 918.508 565.493 892.938 564.552C847.063 562.984 799.265 569.32 759.74 586.259C746.872 591.78 734.922 598.43 724.226 606.272C670.83 645.42 659.967 703.076 624.62 750.317C578.661 811.736 479.389 851.637 384.88 838.023C344.186 832.189 307.502 817.885 272.322 801.322C245.666 788.837 220.263 775.286 194.944 762.613C181.657 755.963 167.953 749.438 153.915 743.353C115.643 726.79 74.9482 713.427 31.3288 709.287C20.2986 708.22 9.01769 707.781 -2.2632 708.032C-29.0031 708.659 -54.9909 713.866 -78.639 723.026C-125.517 741.157 -162.535 774.659 -173.733 813.681" stroke="#D66760" stroke-miterlimit="10"/>
<path d="M1072.43 597.865C1013.94 583.373 954.607 568.755 893.106 566.685C831.604 564.615 766.592 576.598 722.722 608.97C668.825 648.682 658.379 707.028 622.448 754.646C575.569 816.693 473.874 855.84 378.613 841.725C307.418 831.122 248.006 795.864 188.927 764.182C129.849 732.499 63.166 702.323 -9.36602 704.393C-89.5022 706.777 -163.455 753.642 -180 812.489" stroke="#DE655A" stroke-miterlimit="10"/>
<path d="M-175.488 811.736C-159.277 757.218 -93.1789 713.741 -19.477 706.965C-14.6304 706.526 -9.78381 706.212 -4.9372 706.15C64.5865 704.456 128.762 732.186 186.17 761.986C188.175 762.99 190.097 764.056 192.102 765.06C251.014 795.989 310.51 830.181 381.036 839.843C475.462 852.641 574.984 812.803 622.615 751.822C628.715 743.98 634.23 735.824 639.327 727.543C664.563 686.576 680.774 642.346 725.814 610.727C748.292 594.979 775.951 584.314 805.783 577.852C834.612 571.641 865.53 569.383 895.529 570.387C956.696 572.331 1015.77 586.008 1073.43 598.869" stroke="#D56960" stroke-miterlimit="10"/>
<path d="M-171.059 810.983C-154.179 757.155 -88.0816 714.87 -14.9647 708.596C-10.2016 708.157 -5.35504 707.906 -0.508429 707.844C68.4304 706.401 132.105 733.754 189.345 762.864C191.35 763.868 193.272 764.872 195.278 765.875C254.022 796.115 313.518 829.24 383.46 837.898C477.133 849.379 574.483 808.788 622.782 748.936C629.049 741.22 634.564 733.252 639.829 725.159C665.9 685.195 683.532 642.722 728.906 612.483C751.551 597.426 779.127 587.263 808.791 581.177C837.453 575.28 868.12 573.21 898.036 574.088C958.869 575.907 1017.61 588.643 1074.44 599.936" stroke="#CD6E67" stroke-miterlimit="10"/>
<path d="M-166.546 810.231C-148.998 757.092 -82.8171 716.062 -10.3687 710.228C-5.60569 709.851 -0.842638 709.6 3.92041 709.538C72.2743 708.408 135.447 735.322 192.52 763.742C194.526 764.746 196.448 765.687 198.453 766.691C257.114 796.24 316.61 828.299 385.8 835.953C478.721 846.116 573.898 804.772 622.866 746.051C629.216 738.459 634.898 730.68 640.33 722.775C667.237 683.753 686.289 643.036 731.914 614.177C754.643 599.81 782.219 590.211 811.716 584.44C840.211 578.919 870.711 576.911 900.376 577.727C960.875 579.421 1019.37 591.278 1075.35 600.877" stroke="#C4726D" stroke-miterlimit="10"/>
<path d="M-162.118 809.478C-143.901 757.03 -77.7199 717.191 -5.77289 711.796C-1.0934 711.42 3.66964 711.231 8.43268 711.169C76.2016 710.353 138.873 736.828 195.779 764.621C197.785 765.562 199.707 766.566 201.628 767.507C260.122 796.303 319.618 827.358 388.223 834.008C480.308 842.791 573.313 800.757 623.116 743.102C629.55 735.699 635.4 728.045 640.998 720.391C668.741 682.372 689.214 643.35 735.089 615.934C757.985 602.257 785.477 593.16 814.724 587.765C843.052 582.558 873.301 580.738 902.799 581.491C962.964 583.059 1021.12 593.976 1076.27 602.006" stroke="#BC7773" stroke-miterlimit="10"/>
<path d="M-157.605 808.725C-138.72 756.967 -72.539 718.321 -1.17694 713.427C3.50254 713.114 8.18203 712.925 12.8615 712.863C80.0455 712.361 142.216 738.397 198.955 765.499C200.876 766.44 202.882 767.381 204.804 768.322C263.13 796.428 322.71 826.354 390.646 832.063C481.98 839.529 572.728 796.742 623.283 740.216C629.801 732.938 635.818 725.473 641.583 718.007C670.162 680.992 692.055 643.726 738.181 617.628C761.161 604.641 788.653 596.046 817.732 591.027C845.893 586.134 875.975 584.44 905.306 585.13C965.136 586.573 1023.04 596.548 1077.36 603.01" stroke="#B37B7A" stroke-miterlimit="10"/>
<path d="M-153.093 807.972C-133.539 756.904 -67.3582 719.513 3.419 715.058C8.01492 714.745 12.6944 714.619 17.3739 714.619C83.9729 714.431 145.725 740.028 202.213 766.503C204.135 767.444 206.141 768.322 208.063 769.263C266.222 796.617 325.885 825.538 393.153 830.244C483.734 836.392 572.31 792.852 623.534 737.456C630.135 730.304 636.235 723.026 642.168 715.748C671.582 679.675 694.896 644.165 741.273 619.447C764.42 607.151 791.745 599.12 820.741 594.415C848.734 589.835 878.649 588.267 907.729 588.957C967.309 590.274 1024.8 599.308 1078.28 604.139" stroke="#AB7F80" stroke-miterlimit="10"/>
<path d="M-148.664 807.219C-128.442 756.841 -62.2609 720.642 8.01491 716.627C12.6108 716.376 17.2068 716.25 21.8862 716.25C87.9004 716.376 149.151 741.596 205.472 767.318C207.394 768.197 209.4 769.075 211.322 770.016C269.397 796.679 328.977 824.535 395.66 828.236C485.406 833.004 571.809 788.775 623.785 734.444C630.47 727.418 636.737 720.328 642.837 713.239C673.086 678.169 697.821 644.354 744.448 621.078C767.762 609.472 795.004 601.943 823.749 597.552C851.575 593.286 881.24 591.905 910.236 592.47C969.481 593.599 1026.64 601.755 1079.37 605.017" stroke="#A28486" stroke-miterlimit="10"/>
<path d="M-144.152 806.466C-123.261 756.779 -56.9965 721.834 12.6108 718.258C17.2067 718.007 21.7191 717.944 26.315 717.944C91.7442 718.383 152.494 743.165 208.648 768.197C210.57 769.075 212.575 769.953 214.497 770.832C272.406 796.742 332.069 823.531 398 826.291C486.993 829.742 571.224 784.759 623.868 731.558C630.637 724.72 637.071 717.756 643.338 710.855C674.507 676.789 700.578 644.73 747.54 622.772C770.938 611.856 798.179 604.892 826.757 600.814C854.416 596.924 883.914 595.607 912.659 596.109C971.57 597.113 1028.48 604.327 1080.28 605.959" stroke="#9A888D" stroke-miterlimit="10"/>
<path d="M-139.639 805.714C-118.08 756.653 -51.8156 722.963 17.2067 719.826C21.7191 719.638 26.2315 719.513 30.8274 719.575C95.6716 720.328 155.92 744.67 211.907 769.075C213.829 769.891 215.75 770.769 217.756 771.585C275.497 796.805 335.244 822.527 400.506 824.284C488.748 826.417 570.723 780.681 624.119 728.61C630.971 721.897 637.572 715.121 644.007 708.471C676.011 675.346 703.503 645.044 750.716 624.529C774.28 614.303 801.438 607.841 829.849 604.139C857.341 600.563 886.588 599.434 915.166 599.873C973.743 600.751 1030.31 607.088 1081.37 607.088" stroke="#918C93" stroke-miterlimit="10"/>
<path d="M-135.211 804.898C-112.983 756.59 -46.7183 724.093 21.8026 721.395C26.315 721.207 30.7438 721.144 35.2562 721.269C99.5155 722.273 159.262 746.239 215.082 769.953C217.004 770.769 218.926 771.585 220.848 772.4C278.422 796.868 338.169 821.649 402.846 822.339C490.252 823.28 570.054 776.666 624.202 725.724C631.222 719.136 637.823 712.549 644.508 706.087C677.348 673.966 706.177 645.357 753.724 626.223C777.372 616.687 804.446 610.789 832.69 607.401C860.015 604.139 889.095 603.135 917.506 603.512C975.749 604.265 1032.07 609.66 1082.21 608.029" stroke="#899199" stroke-miterlimit="10"/>
<path d="M-130.698 804.145C-107.802 756.528 -41.5375 725.222 26.3986 723.026C30.8274 722.901 35.3397 722.838 39.7685 722.963C103.443 724.281 162.689 747.807 218.341 770.894C220.263 771.71 222.185 772.463 224.107 773.278C281.514 797.056 341.344 820.77 405.353 820.457C492.007 820.018 569.636 772.714 624.453 722.838C631.556 716.439 638.324 709.977 645.093 703.703C678.769 672.585 709.018 645.734 756.816 627.979C780.631 619.133 807.621 613.738 835.698 610.727C862.856 607.778 891.769 606.962 919.929 607.276C977.838 607.903 1033.82 612.358 1083.21 609.158" stroke="#8095A0" stroke-miterlimit="10"/>
<path d="M-126.186 803.392C-102.621 756.465 -36.3566 726.414 30.9946 724.657C35.4234 724.532 39.8521 724.532 44.2809 724.657C107.37 726.288 166.115 749.438 221.6 771.773C223.522 772.526 225.444 773.341 227.366 774.094C284.689 797.181 344.52 819.829 407.776 818.512C493.678 816.755 569.051 768.699 624.62 719.952C631.807 713.678 638.742 707.404 645.678 701.319C680.189 671.142 711.859 646.048 759.907 629.673C783.89 621.517 810.797 616.687 838.707 613.989C865.781 611.417 894.359 610.664 922.436 610.915C980.01 611.417 1035.75 614.93 1084.21 610.099" stroke="#789AA6" stroke-miterlimit="10"/>
<path d="M-121.757 802.639C-97.5241 756.402 -31.1757 727.543 35.5905 726.226C39.9357 726.163 44.3645 726.163 48.7097 726.288C111.214 728.233 169.541 750.944 224.775 772.588C226.697 773.341 228.619 774.094 230.541 774.847C287.698 797.181 347.528 818.763 410.2 816.504C495.266 813.43 568.466 764.621 624.787 717.003C632.057 710.855 639.16 704.769 646.263 698.872C681.61 669.699 714.7 646.298 762.999 631.367C787.065 623.901 813.972 619.572 841.631 617.251C868.538 614.993 896.949 614.428 924.776 614.616C982.016 614.993 1037.42 617.565 1085.13 611.166" stroke="#6F9EAC" stroke-miterlimit="10"/>
<path d="M-117.245 801.887C-92.3433 756.339 -25.9949 728.672 40.1863 727.857C44.5316 727.794 48.8768 727.857 53.2221 727.982C115.142 730.241 172.967 752.512 228.034 773.529C229.956 774.282 231.878 774.972 233.8 775.725C290.789 797.37 350.703 817.885 412.707 814.622C497.021 810.231 568.049 760.606 625.122 714.18C632.475 708.157 639.662 702.26 647.015 696.614C683.197 668.445 717.709 646.738 766.342 633.186C790.575 626.411 817.398 622.647 844.89 620.576C871.63 618.631 899.791 618.192 927.45 618.318C984.356 618.569 1039.51 620.2 1086.38 612.169" stroke="#66A2B3" stroke-miterlimit="10"/>
<path d="M-112.732 801.134C-87.1624 756.277 -20.814 729.864 44.7823 729.425C49.044 729.425 53.3892 729.488 57.6509 729.676C118.986 732.248 176.309 754.081 231.21 774.408C233.131 775.098 235.053 775.788 236.892 776.541C293.714 797.432 353.712 816.943 415.046 812.677C498.609 806.906 567.38 756.59 625.205 711.231C632.642 705.397 639.996 699.625 647.433 694.167C684.451 666.939 720.383 647.051 769.266 634.88C793.667 628.795 820.323 625.532 847.731 623.839C874.304 622.207 902.297 621.894 929.789 621.956C986.361 622.082 1041.18 622.835 1087.22 613.173" stroke="#5EA7B9" stroke-miterlimit="10"/>
<path d="M-108.304 800.381C-82.0651 756.214 -15.7168 730.994 49.3782 731.056C53.6399 731.056 57.9015 731.182 62.1632 731.37C122.913 734.256 179.735 755.649 234.468 775.349C236.39 776.039 238.229 776.729 240.151 777.356C296.889 797.558 356.803 815.94 417.553 810.733C500.28 803.643 566.879 752.575 625.456 708.346C632.977 702.636 640.497 697.053 648.101 691.783C685.955 665.559 723.307 647.365 772.442 636.574C796.925 631.179 823.582 628.418 850.739 627.101C877.145 625.846 904.971 625.658 932.213 625.658C988.45 625.658 1042.93 625.47 1088.22 614.24" stroke="#55ABC0" stroke-miterlimit="10"/>
<path d="M-103.791 799.628C-76.8007 756.151 -10.4523 732.123 53.9742 732.625C58.1523 732.688 62.4139 732.813 66.5921 733.001C126.757 736.201 183.078 757.155 237.644 776.164C239.566 776.792 241.404 777.482 243.326 778.109C299.898 797.558 359.895 814.936 419.893 808.725C501.867 800.255 566.294 748.497 625.54 705.397C633.144 699.813 640.831 694.418 648.603 689.336C687.292 664.053 726.065 647.616 775.45 638.268C800.101 633.563 826.674 631.367 853.664 630.363C879.903 629.422 907.478 629.359 934.553 629.297C990.539 629.171 1044.69 628.042 1089.06 615.181" stroke="#4DB0C6" stroke-miterlimit="10"/>
<path d="M-99.2789 798.875C-71.6198 756.088 -5.27148 733.315 58.57 734.256C62.7481 734.319 66.9262 734.444 71.1044 734.695C130.768 738.208 186.504 758.786 240.903 777.043C242.825 777.67 244.663 778.297 246.585 778.925C302.989 797.683 363.071 813.995 422.4 806.78C503.622 796.993 565.792 744.482 625.79 702.511C633.561 697.116 641.249 691.846 649.271 686.952C688.796 662.673 728.989 647.992 778.625 639.962C803.36 635.947 829.933 634.253 856.756 633.626C882.827 632.998 910.236 633.124 937.143 632.998C992.795 632.685 1046.61 630.677 1090.23 616.247" stroke="#44B4CC" stroke-miterlimit="10"/>
<path d="M-94.8501 798.122C-66.5225 756.026 -0.174135 734.444 63.166 735.887C67.3441 735.95 71.4387 736.138 75.6168 736.452C134.695 740.216 189.93 760.417 244.162 778.046C246.084 778.674 247.922 779.238 249.844 779.866C306.081 797.871 366.162 813.117 424.907 804.961C505.294 793.793 565.291 740.592 626.041 699.688C633.896 694.418 641.751 689.336 649.856 684.694C690.217 661.418 731.831 648.432 781.717 641.781C806.619 638.456 833.024 637.327 859.681 637.013C885.585 636.7 912.743 636.951 939.483 636.762C994.801 636.323 1048.36 633.375 1091.06 617.314" stroke="#3CB8D3" stroke-miterlimit="10"/>
<path d="M-90.3378 797.37C-61.3417 755.963 5.00669 735.636 67.7619 737.456C71.8564 737.581 75.951 737.769 80.0455 738.083C138.539 742.161 193.272 761.923 247.337 778.862C249.175 779.427 251.097 780.054 252.936 780.619C309.006 797.934 369.171 811.987 427.246 803.016C506.881 790.406 564.706 736.577 626.124 696.802C634.063 691.657 642.085 686.764 650.357 682.31C691.554 659.975 734.588 648.745 784.809 643.538C809.878 640.903 836.2 640.276 862.689 640.338C888.426 640.338 915.417 640.778 941.989 640.527C996.973 639.962 1050.2 636.072 1092.15 618.443" stroke="#33BDD9" stroke-miterlimit="10"/>
<path d="M-85.9089 796.617C-56.2444 755.9 10.104 736.765 72.2743 739.087C76.3688 739.212 80.3798 739.463 84.4743 739.777C142.383 744.168 196.698 763.491 250.512 779.74C252.351 780.305 254.273 780.87 256.111 781.434C312.098 798.06 372.179 811.046 429.586 801.071C508.385 787.143 564.038 732.562 626.208 693.916C634.23 688.96 642.419 684.192 650.859 679.926C692.891 658.595 737.346 649.122 787.817 645.232C812.969 643.287 839.292 643.224 865.614 643.538C891.184 643.914 918.007 644.416 944.329 644.103C998.979 643.413 1051.96 638.645 1092.99 619.322" stroke="#2BC1DF" stroke-miterlimit="10"/>
<path d="M-81.3966 795.864C-51.0635 755.838 15.3684 737.957 76.9537 740.718C80.9647 740.906 84.9757 741.157 88.9867 741.471C146.31 746.176 200.124 765.06 253.771 780.681C255.61 781.246 257.532 781.748 259.37 782.313C315.19 798.185 375.354 810.168 432.093 799.189C510.14 783.944 563.62 728.61 626.459 691.03C634.564 686.199 642.837 681.619 651.527 677.542C694.395 657.215 740.27 649.435 790.993 646.989C816.312 645.797 842.55 646.173 868.622 646.863C894.025 647.553 920.598 648.243 946.753 647.804C1001.07 646.989 1053.71 641.28 1093.99 620.388" stroke="#22C5E6" stroke-miterlimit="10"/>
<path d="M-76.8843 795.048C-45.8827 755.712 20.5492 739.024 81.5496 742.224C85.5606 742.412 89.488 742.725 93.499 743.039C150.238 748.058 203.55 766.503 257.03 781.434C258.869 781.936 260.707 782.438 262.629 783.003C318.281 798.185 378.446 809.039 434.6 797.119C511.811 780.493 563.118 724.469 626.709 688.019C634.898 683.313 643.338 678.985 652.112 675.032C695.899 655.646 743.111 649.624 794.084 648.557C819.571 648.055 845.642 648.996 871.63 650C896.866 651.004 923.271 651.819 949.259 651.38C1003.24 650.439 1055.63 643.789 1094.99 621.266" stroke="#1ACAEC" stroke-miterlimit="10"/>
<path d="M-72.4554 794.295C-40.7854 755.649 25.6466 740.153 86.062 743.855C89.9894 744.106 93.9169 744.419 97.9279 744.796C154.082 750.128 206.893 768.197 260.206 782.438C262.044 782.94 263.882 783.442 265.804 783.881C321.29 798.311 381.538 808.16 437.023 795.236C513.483 777.294 562.534 720.517 626.96 685.196C635.233 680.616 643.84 676.475 652.781 672.774C697.403 654.392 746.036 650.125 797.26 650.439C822.83 650.627 848.901 652.07 874.722 653.451C899.791 654.768 925.946 655.709 951.766 655.207C1005.41 654.141 1057.47 646.549 1096.08 622.458" stroke="#11CEF2" stroke-miterlimit="10"/>
<path d="M-67.9431 793.543C-35.6045 755.587 30.8274 741.345 90.7415 745.423C94.6689 745.674 98.5963 746.051 102.44 746.427C158.009 752.073 210.319 769.702 263.548 783.254C265.386 783.693 267.225 784.195 269.063 784.634C324.465 798.373 384.713 807.156 439.446 793.229C515.154 773.969 562.032 716.439 627.127 682.247C635.483 677.855 644.257 673.84 653.366 670.327C698.823 652.949 748.877 650.376 800.352 652.07C826.089 652.949 852.077 654.956 877.647 656.65C902.548 658.344 928.536 659.411 954.19 658.846C1007.5 657.654 1059.31 649.122 1097 623.399" stroke="#09D3F9" stroke-miterlimit="10"/>
<path d="M-63.4308 792.79C-30.4237 755.524 36.0918 742.475 95.3374 747.054C154.583 751.634 210.068 770.393 266.723 784.132C323.462 797.934 385.967 806.717 441.87 791.284C526.435 768.071 572.477 696.865 653.951 667.943C723.307 643.35 804.363 653.764 880.655 659.912C956.947 666.061 1043.35 664.806 1098 624.403" stroke="#00D7FF" stroke-miterlimit="10"/>
</g>
</svg>
